<svg aria-hidden="true" style="width:0;height:0;position:absolute;overflow:hidden" xmlns="http://www.w3.org/2000/svg"><defs><symbol id="icon-github" viewBox="0 0 24 28"><path d="M12 2c6.625 0 12 5.375 12 12 0 5.297-3.437 9.797-8.203 11.391-.609.109-.828-.266-.828-.578 0-.391.016-1.687.016-3.297 0-1.125-.375-1.844-.812-2.219 2.672-.297 5.484-1.313 5.484-5.922 0-1.313-.469-2.375-1.234-3.219.125-.313.531-1.531-.125-3.187-1-.313-3.297 1.234-3.297 1.234a11.28 11.28 0 0 0-6 0S6.704 6.656 5.704 6.969c-.656 1.656-.25 2.875-.125 3.187-.766.844-1.234 1.906-1.234 3.219 0 4.594 2.797 5.625 5.469 5.922-.344.313-.656.844-.766 1.609-.688.313-2.438.844-3.484-1-.656-1.141-1.844-1.234-1.844-1.234-1.172-.016-.078.734-.078.734.781.359 1.328 1.75 1.328 1.75.703 2.141 4.047 1.422 4.047 1.422 0 1 .016 1.937.016 2.234 0 .313-.219.688-.828.578C3.439 23.796.002 19.296.002 13.999c0-6.625 5.375-12 12-12zM4.547 19.234c.031-.063-.016-.141-.109-.187-.094-.031-.172-.016-.203.031-.031.063.016.141.109.187.078.047.172.031.203-.031zm.484.532c.063-.047.047-.156-.031-.25-.078-.078-.187-.109-.25-.047-.063.047-.047.156.031.25.078.078.187.109.25.047zm.469.703c.078-.063.078-.187 0-.297-.063-.109-.187-.156-.266-.094-.078.047-.078.172 0 .281s.203.156.266.109zm.656.656c.063-.063.031-.203-.063-.297-.109-.109-.25-.125-.313-.047-.078.063-.047.203.063.297.109.109.25.125.313.047zm.891.391c.031-.094-.063-.203-.203-.25-.125-.031-.266.016-.297.109s.063.203.203.234c.125.047.266 0 .297-.094zm.984.078c0-.109-.125-.187-.266-.172-.141 0-.25.078-.25.172 0 .109.109.187.266.172.141 0 .25-.078.25-.172zm.906-.156c-.016-.094-.141-.156-.281-.141-.141.031-.234.125-.219.234.016.094.141.156.281.125s.234-.125.219-.219z"/></symbol><symbol id="icon-close-btn" viewBox="0 0 32 32"><path stroke-width="2.133" d="m8.533 8.533 14.933 14.933M8.533 23.467 23.466 8.534"/></symbol><symbol id="icon-heart_footer" viewBox="0 0 35 32"><path fill="#ff6b08" d="m17.231 31.705-2.412-2.412C5.859 21.367.001 16.025.001 9.478.001 4.136 4.136.001 9.478.001c2.929 0 5.858 1.378 7.754 3.618 1.895-2.24 4.825-3.618 7.754-3.618 5.342 0 9.477 4.135 9.477 9.477 0 6.548-5.858 11.889-14.818 19.815l-2.412 2.412z" style="fill:var(--color1,#ff6b08)"/></symbol><symbol id="icon-film_header" viewBox="0 0 32 32"><path stroke-width="2.667" stroke-linecap="round" stroke-linejoin="round" d="M26.427 2.667H5.574a2.907 2.907 0 0 0-2.907 2.907v20.853a2.907 2.907 0 0 0 2.907 2.907h20.853a2.907 2.907 0 0 0 2.907-2.907V5.574a2.907 2.907 0 0 0-2.907-2.907zM9.333 2.667v26.667M22.667 2.667v26.667M2.667 16h26.667M2.667 9.333h6.667M2.667 22.667h6.667M22.667 22.667h6.667M22.667 9.333h6.667"/></symbol><symbol id="icon-search_header" viewBox="0 0 32 32"><path stroke-width="2.667" stroke-linecap="round" stroke-linejoin="round" d="M14.667 25.333c5.891 0 10.667-4.776 10.667-10.667S20.558 3.999 14.667 3.999 4 8.775 4 14.666s4.776 10.667 10.667 10.667zM28 28.001l-5.8-5.8"/></symbol><symbol id="icon-sun" viewBox="0 0 32 32"><path d="M16 9c-3.859 0-7 3.141-7 7s3.141 7 7 7 7-3.141 7-7-3.141-7-7-7zm0-2a1 1 0 0 0 1-1V4a1 1 0 0 0-2 0v2a1 1 0 0 0 1 1zm0 18a1 1 0 0 0-1 1v2a1 1 0 1 0 2 0v-2a1 1 0 0 0-1-1zm7.776-15.365 1.414-1.414a.999.999 0 1 0-1.414-1.414l-1.414 1.414a.999.999 0 1 0 1.414 1.414zM8.221 22.366 6.807 23.78a.999.999 0 1 0 1.414 1.414l1.414-1.414c.391-.393.391-1.023 0-1.414s-1.023-.393-1.414 0zM7 16a1 1 0 0 0-1-1H4a1 1 0 1 0 0 2h2a1 1 0 0 0 1-1zm21-1h-2a1 1 0 1 0 0 2h2a1 1 0 1 0 0-2zM8.22 9.635a.999.999 0 1 0 1.414-1.414L8.22 6.807a.999.999 0 1 0-1.414 1.414L8.22 9.635zm15.559 12.728c-.393-.391-1.023-.391-1.414 0s-.393 1.023 0 1.414l1.414 1.414a.999.999 0 1 0 1.414-1.414l-1.414-1.414z"/></symbol><symbol id="icon-moon" viewBox="0 0 32 32"><path d="M15.505 16.496c-1.97-1.971-2.499-4.819-1.626-7.284a6.946 6.946 0 0 0-2.616 1.626 7 7 0 0 0 9.898 9.9 6.896 6.896 0 0 0 1.626-2.616c-2.463.872-5.312.344-7.283-1.626z"/></symbol><symbol id="icon-arrow-up" viewBox="0 0 32 32"><path d="m27.414 12.586-10-10a2 2 0 0 0-2.828 0l-10 10a2 2 0 1 0 2.828 2.828L14 8.828V28a2 2 0 1 0 4 0V8.828l6.586 6.586c.39.39.902.586 1.414.586s1.024-.195 1.414-.586a2 2 0 0 0 0-2.828z"/></symbol><symbol id="icon-linkedin" viewBox="0 0 32 32"><path d="M29 0H3C1.35 0 0 1.35 0 3v26c0 1.65 1.35 3 3 3h26c1.65 0 3-1.35 3-3V3c0-1.65-1.35-3-3-3zM12 26H8V12h4v14zm-2-16c-1.106 0-2-.894-2-2s.894-2 2-2c1.106 0 2 .894 2 2s-.894 2-2 2zm16 16h-4v-8c0-1.106-.894-2-2-2s-2 .894-2 2v8h-4V12h4v2.481C18.825 13.35 20.087 12 21.5 12c2.488 0 4.5 2.238 4.5 5v9z"/></symbol></defs></svg>