<svg aria-hidden="true" style="width:0;height:0;position:absolute;overflow:hidden" xmlns="http://www.w3.org/2000/svg"><defs><symbol id="icon-github" viewBox="0 0 24 28"><path d="M12 2c6.625 0 12 5.375 12 12 0 5.297-3.437 9.797-8.203 11.391-.609.109-.828-.266-.828-.578 0-.391.016-1.687.016-3.297 0-1.125-.375-1.844-.812-2.219 2.672-.297 5.484-1.313 5.484-5.922 0-1.313-.469-2.375-1.234-3.219.125-.313.531-1.531-.125-3.187-1-.313-3.297 1.234-3.297 1.234a11.28 11.28 0 0 0-6 0S6.704 6.656 5.704 6.969c-.656 1.656-.25 2.875-.125 3.187-.766.844-1.234 1.906-1.234 3.219 0 4.594 2.797 5.625 5.469 5.922-.344.313-.656.844-.766 1.609-.688.313-2.438.844-3.484-1-.656-1.141-1.844-1.234-1.844-1.234-1.172-.016-.078.734-.078.734.781.359 1.328 1.75 1.328 1.75.703 2.141 4.047 1.422 4.047 1.422 0 1 .016 1.937.016 2.234 0 .313-.219.688-.828.578C3.439 23.796.002 19.296.002 13.999c0-6.625 5.375-12 12-12zM4.547 19.234c.031-.063-.016-.141-.109-.187-.094-.031-.172-.016-.203.031-.031.063.016.141.109.187.078.047.172.031.203-.031zm.484.532c.063-.047.047-.156-.031-.25-.078-.078-.187-.109-.25-.047-.063.047-.047.156.031.25.078.078.187.109.25.047zm.469.703c.078-.063.078-.187 0-.297-.063-.109-.187-.156-.266-.094-.078.047-.078.172 0 .281s.203.156.266.109zm.656.656c.063-.063.031-.203-.063-.297-.109-.109-.25-.125-.313-.047-.078.063-.047.203.063.297.109.109.25.125.313.047zm.891.391c.031-.094-.063-.203-.203-.25-.125-.031-.266.016-.297.109s.063.203.203.234c.125.047.266 0 .297-.094zm.984.078c0-.109-.125-.187-.266-.172-.141 0-.25.078-.25.172 0 .109.109.187.266.172.141 0 .25-.078.25-.172zm.906-.156c-.016-.094-.141-.156-.281-.141-.141.031-.234.125-.219.234.016.094.141.156.281.125s.234-.125.219-.219z"/></symbol><symbol id="icon-close-btn" viewBox="0 0 32 32"><path stroke-width="2.133" d="m8.533 8.533 14.933 14.933M8.533 23.467 23.466 8.534"/></symbol><symbol id="icon-heart_footer" viewBox="0 0 35 32"><path fill="#ff6b08" d="m17.231 31.705-2.412-2.412C5.859 21.367.001 16.025.001 9.478.001 4.136 4.136.001 9.478.001c2.929 0 5.858 1.378 7.754 3.618 1.895-2.24 4.825-3.618 7.754-3.618 5.342 0 9.477 4.135 9.477 9.477 0 6.548-5.858 11.889-14.818 19.815l-2.412 2.412z" style="fill:var(--color1,#ff6b08)"/></symbol><symbol id="icon-film_header" viewBox="0 0 32 32"><path stroke-width="2.667" stroke-linecap="round" stroke-linejoin="round" d="M26.427 2.667H5.574a2.907 2.907 0 0 0-2.907 2.907v20.853a2.907 2.907 0 0 0 2.907 2.907h20.853a2.907 2.907 0 0 0 2.907-2.907V5.574a2.907 2.907 0 0 0-2.907-2.907zM9.333 2.667v26.667M22.667 2.667v26.667M2.667 16h26.667M2.667 9.333h6.667M2.667 22.667h6.667M22.667 22.667h6.667M22.667 9.333h6.667"/></symbol><symbol id="icon-search_header" viewBox="0 0 32 32"><path stroke-width="2.667" stroke-linecap="round" stroke-linejoin="round" d="M14.667 25.333c5.891 0 10.667-4.776 10.667-10.667S20.558 3.999 14.667 3.999 4 8.775 4 14.666s4.776 10.667 10.667 10.667zM28 28.001l-5.8-5.8"/></symbol><symbol id="icon-sun" viewBox="0 0 32 32"><path d="M16 9c-3.859 0-7 3.141-7 7s3.141 7 7 7 7-3.141 7-7-3.141-7-7-7zm0-2a1 1 0 0 0 1-1V4a1 1 0 0 0-2 0v2a1 1 0 0 0 1 1zm0 18a1 1 0 0 0-1 1v2a1 1 0 1 0 2 0v-2a1 1 0 0 0-1-1zm7.776-15.365 1.414-1.414a.999.999 0 1 0-1.414-1.414l-1.414 1.414a.999.999 0 1 0 1.414 1.414zM8.221 22.366 6.807 23.78a.999.999 0 1 0 1.414 1.414l1.414-1.414c.391-.393.391-1.023 0-1.414s-1.023-.393-1.414 0zM7 16a1 1 0 0 0-1-1H4a1 1 0 1 0 0 2h2a1 1 0 0 0 1-1zm21-1h-2a1 1 0 1 0 0 2h2a1 1 0 1 0 0-2zM8.22 9.635a.999.999 0 1 0 1.414-1.414L8.22 6.807a.999.999 0 1 0-1.414 1.414L8.22 9.635zm15.559 12.728c-.393-.391-1.023-.391-1.414 0s-.393 1.023 0 1.414l1.414 1.414a.999.999 0 1 0 1.414-1.414l-1.414-1.414z"/></symbol><symbol id="icon-moon" viewBox="0 0 32 32"><path d="M15.505 16.496c-1.97-1.971-2.499-4.819-1.626-7.284a6.946 6.946 0 0 0-2.616 1.626 7 7 0 0 0 9.898 9.9 6.896 6.896 0 0 0 1.626-2.616c-2.463.872-5.312.344-7.283-1.626z"/></symbol><symbol id="icon-arrow-up" viewBox="0 0 32 32"><path d="m27.414 12.586-10-10a2 2 0 0 0-2.828 0l-10 10a2 2 0 1 0 2.828 2.828L14 8.828V28a2 2 0 1 0 4 0V8.828l6.586 6.586c.39.39.902.586 1.414.586s1.024-.195 1.414-.586a2 2 0 0 0 0-2.828z"/></symbol><symbol id="icon-linkedin" viewBox="0 0 32 32"><path d="M29 0H3C1.35 0 0 1.35 0 3v26c0 1.65 1.35 3 3 3h26c1.65 0 3-1.35 3-3V3c0-1.65-1.35-3-3-3zM12 26H8V12h4v14zm-2-16c-1.106 0-2-.894-2-2s.894-2 2-2c1.106 0 2 .894 2 2s-.894 2-2 2zm16 16h-4v-8c0-1.106-.894-2-2-2s-2 .894-2 2v8h-4V12h4v2.481C18.825 13.35 20.087 12 21.5 12c2.488 0 4.5 2.238 4.5 5v9z"/></symbol><symbol id="icon-btn-filter" viewBox="0 0 32 32"><path d="M15.136 14.72c.88 0 1.52-.176 1.904-.512.384-.32.592-.864.592-1.632 0-.752-.208-1.28-.592-1.616-.384-.32-1.024-.48-1.904-.48h-1.792v4.24h1.792zm-1.792 2.928v6.24H9.088V7.392h6.496c2.176 0 3.76.368 4.768 1.104 1.024.72 1.52 1.872 1.52 3.456 0 1.088-.256 1.984-.784 2.688-.528.688-1.312 1.216-2.384 1.536.592.144 1.104.448 1.568.912s.928 1.168 1.392 2.128l2.32 4.672h-4.528l-2.016-4.096c-.4-.816-.816-1.392-1.232-1.68-.416-.304-.976-.464-1.664-.464h-1.2z"/></symbol><symbol id="placeholder" viewBox="0 0 32 32"><path fill="#ffafa6" style="fill:var(--color2,#ffafa6)" d="M7.932 22.701c-.299-.022-.599-.043-.898-.067-.241-.02-.483-.039-.723-.068-.272-.034-.545-.068-.815-.121a24.624 24.624 0 0 1-1.199-.262 6.678 6.678 0 0 1-1.307-.461c-.295-.142-.577-.303-.809-.535a.916.916 0 0 1-.271-.466.451.451 0 0 1-.01-.09V4.149c.026.023.045.037.06.053.311.334.698.532 1.145.592.698.093 1.308-.096 1.794-.621.186-.201.306-.442.364-.71.013-.061.04-.083.096-.091.507-.08.849-.384 1.095-.813.209-.364.298-.761.296-1.179v-.157c.126-.013.248-.031.371-.038.328-.019.656-.042.984-.049a82.382 82.382 0 0 1 1.722-.016c.221 0 .441.016.662.033.293.023.586.051.879.082.284.03.569.059.851.102.301.046.602.096.898.167.417.099.833.206 1.242.334.437.137.855.324 1.233.591.204.144.382.311.483.543a.64.64 0 0 1 .056.247c.003 5.799.002 11.599.003 17.398 0 .182-.082.332-.193.464-.086.102-.19.19-.292.279-.06.053-.072.114-.063.187.005.047.012.093.012.14l.001 2.7c0 .18-.136.343-.315.377a.364.364 0 0 1-.4-.241.464.464 0 0 1-.031-.16c-.002-.775-.001-1.55-.001-2.325 0-.153-.069-.192-.213-.141-.249.089-.5.173-.753.249-.087.026-.095.081-.097.149-.001.044.007.088.007.132.001.928.002 1.855-.001 2.783-.001.229-.045.448-.217.619a.728.728 0 0 1-.797.182c-.281-.099-.445-.311-.484-.612a1.52 1.52 0 0 1-.015-.19l-.001-2.533c0-.03.001-.063-.009-.09-.023-.059-.061-.092-.135-.081-.201.03-.403.056-.604.079-.265.03-.53.057-.796.082-.118.011-.237.013-.371.019-.288.011-.561.031-.834.031-.534.001-1.068-.009-1.602-.014zm-.731-2.373c.083.175.232.289.388.388a2.55 2.55 0 0 0 1.231.379c.303.02.608.017.91-.045.345-.071.674-.18.961-.389.143-.104.277-.221.349-.406.142-.294.085-.612-.145-.857a1.79 1.79 0 0 0-.763-.468 3.19 3.19 0 0 0-1.306-.151 3.107 3.107 0 0 0-.853.187c-.289.111-.543.27-.735.52a.725.725 0 0 0-.036.841zm3.245-14.05c-.09.073-.182.143-.268.221-.052.047-.089.044-.132-.006-.061-.071-.128-.138-.185-.212a4.464 4.464 0 0 1-.677-1.32c-.037-.112-.034-.118.064-.178a.361.361 0 0 0 .185-.368.326.326 0 0 0-.201-.28c-.212-.093-.396-.007-.491.172-.101.192-.004.431.171.493.068.024.081.062.058.134a4.539 4.539 0 0 1-.446.995c-.125.203-.28.387-.422.578-.038.051-.077.06-.131.012-.098-.089-.202-.171-.304-.27-.006-.613-.002-1.225-.021-1.838-.01-.315-.169-.571-.406-.778-.352-.308-.756-.381-1.198-.252a1.222 1.222 0 0 0-.859 1.157c0 .527 0 1.054-.011 1.577l-.039-.043c-.093-.091-.116-.173-.027-.294.084-.115.055-.255-.028-.37a.373.373 0 0 0-.392-.133c-.172.05-.29.21-.27.368.026.205.162.333.358.343.035.002.085.014.102.039.106.15.205.305.306.474v7.964c0 .074.005.149.016.223.054.342.22.618.504.817.251.175.531.262.838.213.151-.024.312-.051.443-.122.452-.244.68-.634.681-1.15.001-1.674.001-3.349.015-5.025.024.005.048.013.072.015.322.023.644.057.966.064.357.008.715-.002 1.072-.016.22-.009.438-.04.658-.046l.001 4.998c0 .094.002.189.017.281.05.299.196.546.431.734.268.215.574.307.92.27a1.23 1.23 0 0 0 .847-.467c.202-.246.265-.538.265-.845.002-2.596.001-5.192 0-7.789 0-.028-.013-.056-.017-.096.107-.16.211-.322.321-.48.029-.042.063-.076.128-.076a.357.357 0 0 0 .308-.532c-.103-.189-.339-.239-.536-.114-.154.098-.19.349-.07.505.033.043.053.087.015.135a1.16 1.16 0 0 1-.147.161c0-.489.001-.977-.001-1.466a1.913 1.913 0 0 0-.026-.321 1.183 1.183 0 0 0-.392-.694 1.21 1.21 0 0 0-1.052-.299c-.275.046-.509.18-.698.388a1.098 1.098 0 0 0-.31.725c-.011.605-.003 1.21-.008 1.825zM6.107 17.269c.003.082-.004.166.011.246a.679.679 0 0 0 .486.548c.266.087.51.029.716-.16a.726.726 0 0 0-.115-1.148c-.425-.267-1.028.002-1.097.513zm5.035-.603a.68.68 0 0 0-.445.262.7.7 0 0 0 .06.962.679.679 0 0 0 .639.192.727.727 0 0 0 .584-.75.69.69 0 0 0-.281-.524.671.671 0 0 0-.557-.142z"/><path fill="#fbd5ac" style="fill:var(--color3,#fbd5ac)" d="m10.365 24 .002.1c0 2.13.002 4.26-.002 6.39-.001.476-.203.859-.62 1.1a1.137 1.137 0 0 1-.756.148 1.215 1.215 0 0 1-1.056-1.215c.002-2.169.001-4.337.01-6.514.255-.009.502-.01.754-.008.077.01.148.016.22.028 0 .011 0 .017-.004.027-.093.133-.201.258-.11.434-.165.096-.161.253-.149.407a.675.675 0 0 0 .158.416c-.086.093-.089.13-.027.232.028.045.052.092.085.134.043.055.037.096-.004.153-.07.098-.175.189-.118.335.004.01-.011.029-.019.042-.044.076-.03.138.049.18.038.021.082.033.124.045.099.028.199.054.313.084-.084.07-.19.121-.151.225.031.082.11.145.174.225l-.368.11c-.098.029-.14.083-.123.157.016.07.088.111.18.09.111-.025.222-.054.329-.091s.213-.081.312-.135c.092-.051.1-.146.03-.225-.027-.03-.065-.051-.098-.077l-.084-.068c.04-.029.07-.049.097-.072.03-.025.06-.05.085-.08.07-.083.052-.177-.044-.23-.036-.02-.076-.032-.118-.049.013-.022.033-.041.033-.059 0-.171.101-.263.237-.345.087-.052.069-.164-.018-.221a1.064 1.064 0 0 0-.124-.069c-.047-.024-.067-.056-.066-.112.002-.076-.008-.152-.014-.238.098-.047.139-.15.125-.256a1.267 1.267 0 0 0-.106-.362.225.225 0 0 0-.292-.113c-.097.038-.153-.006-.221-.056l.098-.209.038.051c.161.215.37.197.481-.049.035-.078.035-.172.058-.258l.7-.001zm-.742 6.655-.2-.183c.054-.045.11-.086.158-.135.095-.097.067-.213-.06-.262-.028-.011-.056-.019-.077-.027.018-.056.047-.106.046-.155-.003-.101.041-.154.13-.192.072-.03.14-.078.138-.171-.002-.087-.074-.117-.138-.151-.01-.005-.019-.012-.029-.016-.075-.029-.1-.082-.093-.162.005-.064-.008-.13-.013-.195.219-.191.111-.405.038-.622.122-.023.143-.115.143-.213 0-.088-.008-.178-.024-.265a.448.448 0 0 0-.062-.152c-.036-.058-.094-.067-.154-.038-.056.027-.081.073-.072.136l.013.064h-.095c-.128.001-.256-.003-.383.006-.09.006-.136.062-.132.132.004.071.065.121.151.123H9.4v.08c-.074.004-.145-.002-.21.014-.052.013-.088.015-.137-.016-.16-.104-.355-.017-.389.171a.789.789 0 0 0 .142.631c-.086.107-.086.128-.008.254.012.019.02.041.035.056.082.087.078.165-.003.257-.068.078-.134.168-.083.287.004.008-.008.025-.014.036-.05.09-.034.151.059.195.04.019.084.029.126.041.094.027.188.052.295.081-.084.072-.195.122-.148.233.035.08.114.142.176.216l-.389.114c-.083.025-.123.083-.108.153.013.063.08.114.155.092.217-.064.432-.137.645-.215.083-.03.115-.101.077-.202z"/><path fill="#ffafa6" style="fill:var(--color2,#ffafa6)" d="M15.813 30.62c.072.077.15.143.203.225.097.15.058.334-.087.484a1.24 1.24 0 0 1-.48.291 3.073 3.073 0 0 1-.81.167 3.236 3.236 0 0 1-1.374-.169 1.21 1.21 0 0 1-.473-.286c-.186-.192-.187-.421-.001-.613.134-.139.301-.224.48-.29.262-.096.533-.144.811-.166.453-.037.897.003 1.326.155.139.05.268.131.406.201z"/><path fill="#eec9a3" style="fill:var(--color4,#eec9a3)" d="M10.365 23.992c-.232.008-.462.008-.702.001-.012-.16-.012-.314-.141-.431.109-.097.128-.216.111-.346a.48.48 0 0 0-.377-.395c-.202-.034-.43.068-.507.226-.071.146-.012.438.111.552.051.047.112.056.166.014.052-.041.066-.098.03-.163a.798.798 0 0 1-.08-.173.169.169 0 0 1 .014-.125c.057-.093.219-.104.312-.029.096.078.102.184.017.276-.065.07-.076.157-.011.204.061.044.048.088.029.145-.163 0-.324-.008-.484.002-.164.01-.208.087-.161.247L7.944 24c-.008-.428-.009-.856-.011-1.291.534-.002 1.068.007 1.602.006.273 0 .546-.02.826-.031.007.434.006.867.005 1.308z"/><path fill="#f19a91" style="fill:var(--color5,#f19a91)" d="M12.912 6.532c.007.028.02.056.02.084.001 2.596.002 5.192 0 7.789 0 .307-.064.599-.265.845-.22.269-.498.43-.847.467a1.211 1.211 0 0 1-.92-.27 1.158 1.158 0 0 1-.431-.734 1.753 1.753 0 0 1-.017-.281c-.001-1.666-.001-3.332.006-5.007.048-.014.089-.017.129-.026.264-.06.529-.116.79-.186.115-.031.231-.076.304-.19a.062.062 0 0 0 .01-.02l-.032.01c-.209.06-.409.13-.614.176-.195.043-.396.061-.593.083 0-.728 0-1.449.006-2.169.642.337 1.264.266 1.892-.081l-.513 1.291c.254-.413.491-.832.735-1.248.107-.182.229-.356.344-.533zM7.667 9.419l-.001 5.023c0 .516-.228.906-.681 1.15-.132.071-.292.098-.443.122-.307.048-.587-.039-.838-.213a1.183 1.183 0 0 1-.504-.817 1.501 1.501 0 0 1-.016-.223c-.001-2.655 0-5.309.005-7.969a17.57 17.57 0 0 1 1.082 1.836l.03-.013-.508-1.274.198.096c.375.185.768.253 1.178.162.17-.038.331-.11.497-.159.001.719.001 1.431-.006 2.143-.078-.01-.149-.018-.219-.032-.249-.052-.499-.104-.747-.162-.086-.02-.168-.057-.251-.087a.409.409 0 0 0 .138.131c.338.182.714.228 1.085.287z"/><path fill="#bb1021" style="fill:var(--color6,#bb1021)" d="M7.666 7.131c-.165.057-.327.129-.497.167-.41.091-.804.023-1.178-.162l-.198-.096.508 1.274-.03.013a18.346 18.346 0 0 0-1.082-1.843c-.107-.156-.206-.311-.312-.461-.018-.025-.067-.037-.102-.039-.196-.011-.332-.138-.358-.343-.02-.158.097-.318.27-.368a.374.374 0 0 1 .392.133c.084.115.112.255.028.37-.089.122-.066.204.027.294.014.013.026.028.046.05.13.142.247.283.378.409.21.201.446.367.72.475.061.024.101.011.127-.049l.08-.19c.149-.372.195-.764.213-1.161.003-.068-.022-.112-.101-.124-.192-.03-.305-.201-.279-.411.02-.162.198-.317.361-.302.143.013.266.066.324.215.055.141.047.27-.058.384-.046.049-.04.088 0 .136.093.109.175.228.274.33.144.149.299.286.45.428.102.085.206.167.304.255.053.048.093.039.131-.012.142-.192.297-.376.422-.578.191-.311.334-.646.446-.995.023-.072.01-.109-.058-.134-.174-.062-.272-.302-.171-.493.094-.179.279-.265.491-.172a.327.327 0 0 1 .201.28.363.363 0 0 1-.185.368c-.098.06-.101.067-.064.178.158.475.372.921.677 1.32.057.074.124.141.185.212.043.05.081.053.132.006.086-.077.178-.147.275-.228.03-.028.051-.05.074-.07.243-.215.47-.446.665-.706.04-.053.043-.102-.008-.153a.296.296 0 0 1-.083-.242.35.35 0 0 1 .237-.319.363.363 0 0 1 .4.102c.098.117.103.252.049.389-.046.118-.143.178-.262.207-.06.014-.082.047-.078.107.008.113.011.226.017.339.019.319.104.622.222.918.025.062.061.12.093.181.483-.185.846-.5 1.152-.887.049-.059.099-.117.146-.177.038-.048.017-.092-.015-.135-.119-.156-.084-.407.07-.505.197-.125.434-.075.536.114a.356.356 0 0 1-.308.532c-.065 0-.099.035-.128.076-.109.158-.214.32-.322.486-.117.183-.238.357-.345.539-.244.415-.48.835-.735 1.248l.513-1.291c-.628.347-1.25.418-1.897.078-.034-.019-.056-.036-.079-.05a2.404 2.404 0 0 1-.642-.568 3.667 3.667 0 0 1-.614-1.15c-.008-.025-.026-.047-.054-.096-.266.801-.668 1.47-1.396 1.894zm-.022-.508-.595-.514c-.028-.024-.059-.046-.089-.069l-.028.104c-.005.021-.013.043-.015.064a2.337 2.337 0 0 1-.195.779c-.015.036-.019.077-.035.143.17-.017.321-.022.468-.051a1.27 1.27 0 0 0 .506-.214l.154-.104a3.34 3.34 0 0 1-.172-.139zm3.36.448c.12.01.241.022.361.028.092.004.097-.009.062-.095-.115-.284-.207-.573-.213-.884-.001-.03-.015-.06-.025-.097l-.859.729c.204.153.415.268.674.319z"/><path fill="#f19a91" style="fill:var(--color5,#f19a91)" d="M7.667 6.254c-.15-.135-.306-.272-.45-.421-.099-.102-.181-.221-.274-.33-.041-.048-.046-.086 0-.136.105-.113.114-.243.058-.384-.059-.149-.181-.202-.324-.215-.162-.015-.341.14-.361.302-.025.21.088.382.279.411.079.012.104.056.101.124-.017.397-.063.788-.213 1.161l-.08.19c-.025.06-.066.073-.127.049a2.23 2.23 0 0 1-.72-.475c-.131-.126-.248-.267-.373-.407-.002-.532-.002-1.06-.002-1.587 0-.522.359-1.011.859-1.157.442-.129.846-.056 1.198.252.236.207.396.463.406.778.019.612.015 1.225.021 1.845zM12.934 6.128c-.306.395-.669.71-1.152.895-.032-.061-.068-.119-.093-.181a2.966 2.966 0 0 1-.222-.918c-.007-.113-.01-.226-.017-.339-.004-.06.018-.092.078-.107.118-.028.215-.088.262-.207.054-.137.049-.272-.049-.389a.365.365 0 0 0-.4-.102.347.347 0 0 0-.237.319.295.295 0 0 0 .083.242c.051.051.048.1.008.153-.195.26-.422.491-.665.706-.023.02-.044.042-.072.065-.005-.603-.013-1.208-.003-1.813a1.1 1.1 0 0 1 .31-.725c.189-.208.423-.342.698-.388.395-.067.75.028 1.052.299.209.187.344.418.392.694.018.105.025.214.026.321.003.489.001.977.002 1.474zM7.199 20.316a.712.712 0 0 1 .037-.829c.191-.25.446-.409.735-.52.275-.105.559-.162.853-.187.447-.039.882.009 1.306.151.289.097.55.241.763.468.229.245.287.563.136.862-.017.004-.026.005-.033.001-.504-.29-1.058-.393-1.628-.427-.376-.023-.751.006-1.121.082s-.728.19-1.048.398z"/><path fill="#fec3bb" style="fill:var(--color7,#fec3bb)" d="M7.2 20.322c.32-.214.677-.328 1.047-.404s.745-.104 1.121-.082c.569.034 1.124.137 1.628.427.007.004.016.003.031.005-.061.174-.195.29-.338.395-.287.209-.616.318-.961.389a3.433 3.433 0 0 1-.91.045 2.553 2.553 0 0 1-1.231-.379c-.156-.099-.305-.213-.388-.394z"/><path fill="#f19a91" style="fill:var(--color5,#f19a91)" d="M6.11 17.263c.066-.504.669-.773 1.094-.506.4.251.471.82.115 1.148a.687.687 0 0 1-.716.16.679.679 0 0 1-.486-.548c-.015-.08-.008-.164-.008-.253zM11.15 16.666c.211-.04.389.02.55.142a.694.694 0 0 1 .281.524.727.727 0 0 1-.584.75.678.678 0 0 1-.639-.192.702.702 0 0 1-.06-.962.683.683 0 0 1 .452-.262z"/><path fill="#b12" style="fill:var(--color8,#b12)" d="M7.674 9.418c-.378-.058-.754-.104-1.092-.286a.419.419 0 0 1-.138-.131c.084.029.165.066.251.087.248.058.497.11.747.162.07.015.141.022.226.033.266.022.518.06.771.063.671.007 1.344.031 2.012-.065.198-.029.399-.047.594-.09.206-.046.406-.116.617-.173.011.004.014.006.016.008-.069.112-.185.157-.3.188-.261.07-.526.126-.79.186-.04.009-.081.012-.129.019-.226.022-.445.054-.665.062-.357.014-.715.024-1.072.016-.322-.007-.644-.041-.966-.064-.024-.002-.048-.01-.079-.014z"/><path fill="#bc1524" style="fill:var(--color9,#bc1524)" d="M8.696 24c-.053-.163-.008-.24.156-.25.16-.01.32-.002.484-.002.019-.057.032-.1-.029-.145-.065-.047-.054-.134.011-.204.085-.092.079-.198-.017-.276-.093-.075-.255-.064-.312.029a.18.18 0 0 0-.014.125c.017.06.049.117.08.173.036.065.022.122-.03.163-.054.043-.115.034-.166-.014-.123-.114-.181-.406-.111-.552.077-.158.305-.26.507-.226a.48.48 0 0 1 .377.395c.017.13-.002.25-.111.346.13.118.129.271.134.432-.014.094-.014.188-.049.266-.111.246-.32.263-.481.049l-.038-.051-.098.209c.068.05.123.094.221.056a.226.226 0 0 1 .292.113c.053.113.089.238.106.362.015.107-.027.209-.125.256.006.085.016.162.014.238-.002.056.019.088.066.112.042.021.084.043.124.069.088.058.106.169.018.221-.137.082-.238.174-.237.345 0 .019-.02.037-.033.059.042.017.082.029.118.049.096.052.114.146.044.23a.718.718 0 0 1-.085.08c-.027.023-.057.043-.097.072l.084.068c.033.026.07.046.098.077.071.079.062.174-.03.225-.099.054-.205.098-.312.135s-.218.066-.329.091c-.093.021-.165-.019-.18-.09-.017-.075.025-.128.123-.157l.368-.11c-.064-.08-.143-.144-.174-.225-.039-.104.067-.155.151-.225-.114-.03-.214-.056-.313-.084-.042-.012-.086-.024-.124-.045-.079-.043-.093-.104-.049-.18.008-.014.023-.032.019-.042-.057-.146.048-.237.118-.335.041-.057.047-.098.004-.153-.033-.041-.057-.089-.085-.134-.063-.102-.059-.139.027-.232a.675.675 0 0 1-.158-.416c-.012-.154-.015-.311.149-.407-.091-.175.017-.3.116-.434a.083.083 0 0 0 .025-.027l-.027-.005c-.072-.007-.143-.013-.22-.023zm.299 1.096c.081.133.081.134-.023.23.168.123.26-.023.351-.091.007-.072.007-.128.02-.181.022-.094 0-.192-.08-.248v.101c.002.102-.054.149-.154.129-.071-.015-.092-.071-.112-.131-.017-.051-.038-.1-.057-.149l-.034.012c-.014.115.036.216.089.328zm.159 1.041-.144.044.002.02.229.052.011-.022c-.029-.031-.057-.062-.099-.094zm.114-2.104c.008.032.014.065.026.096.002.006.039.008.041.003.015-.028.024-.059.04-.101-.045 0-.069 0-.107.002z"/><path fill="#bc1624" style="fill:var(--color10,#bc1624)" d="M9.626 30.661c.036.095.004.166-.079.196-.213.078-.428.15-.645.215a.122.122 0 0 1-.155-.092c-.015-.07.025-.128.108-.153l.389-.114c-.063-.074-.142-.135-.176-.216-.047-.111.063-.161.148-.233a38.28 38.28 0 0 1-.295-.081c-.043-.012-.087-.022-.126-.041-.092-.043-.109-.104-.059-.195.006-.012.018-.028.014-.036-.051-.119.015-.209.083-.287.081-.092.085-.17.003-.257-.015-.016-.023-.038-.035-.056-.079-.126-.078-.147.008-.254a.787.787 0 0 1-.142-.631c.034-.187.229-.275.389-.171.048.031.084.029.137.016.065-.016.136-.01.21-.014v-.08h-.492c-.086-.002-.147-.052-.151-.123-.004-.07.043-.125.132-.132.127-.009.255-.005.383-.006h.095c-.006-.027-.011-.045-.013-.064-.009-.063.016-.109.072-.136.06-.029.118-.019.154.038a.448.448 0 0 1 .062.152c.016.087.023.176.024.265.001.099-.021.191-.143.213.073.216.181.431-.038.622.005.064.018.13.013.195-.007.081.018.133.093.162.01.004.02.011.029.016.064.034.136.064.138.151.002.093-.066.141-.138.171-.09.038-.133.091-.13.192.001.049-.028.099-.046.155.021.007.049.016.077.027.127.049.156.165.06.262-.048.049-.105.09-.158.135.068.062.134.122.202.189zm-.467-1.543.164-.135c.008-.074.008-.13.02-.183.023-.096-.002-.195-.08-.241v.101c.002.094-.048.139-.141.127-.075-.01-.103-.066-.124-.13-.018-.053-.039-.105-.059-.157l-.034.012c-.011.121.038.227.091.333.021.041.053.086.05.127-.003.037-.046.072-.073.111.034.01.067.022.102.031a.3.3 0 0 0 .084.006zm.036.874h.055c-.074-.127-.116-.134-.239-.046l.184.046z"/><path fill="#eec9a3" style="fill:var(--color4,#eec9a3)" d="M8.916 24.027a.05.05 0 0 1 .027 0 .088.088 0 0 1-.021.023c-.005-.006-.005-.012-.006-.023z"/><path fill="#ffafa6" style="fill:var(--color2,#ffafa6)" d="M10.45 9.273c-.668.104-1.341.079-2.012.073-.252-.003-.504-.041-.764-.064a217.88 217.88 0 0 1-.008-2.143c.728-.432 1.131-1.101 1.396-1.902.027.048.045.071.054.096.136.42.341.804.614 1.15.179.227.393.418.642.568.024.014.046.031.074.049.005.724.005 1.444.005 2.173z"/><path fill="#b12" style="fill:var(--color8,#b12)" d="M11.667 9.017c.006-.006.015-.009.023-.013a.073.073 0 0 1-.01.02c-.006 0-.008-.002-.013-.007z"/><path fill="#f19a91" style="fill:var(--color5,#f19a91)" d="M10.997 7.07a1.623 1.623 0 0 1-.667-.318l.859-.729c.01.037.025.067.025.097.006.31.098.6.213.884.035.087.03.099-.062.095-.121-.005-.241-.018-.368-.029zM7.65 6.868a1.19 1.19 0 0 1-.494.213c-.147.028-.298.033-.468.051.016-.066.02-.107.035-.143.105-.25.178-.507.195-.779.001-.022.009-.043.015-.064l.028-.104c.03.023.061.044.089.069.199.171.397.343.598.527.003.086.003.159.003.232z"/><path fill="#fdaca3" style="fill:var(--color11,#fdaca3)" d="M7.656 6.867c-.006-.072-.006-.145-.006-.226.051.032.102.071.166.122-.059.04-.107.072-.16.104z"/><path fill="#f5c9a3" style="fill:var(--color12,#f5c9a3)" d="M8.992 25.091c-.05-.107-.1-.208-.086-.323l.034-.012c.019.05.041.099.057.149.02.06.041.116.112.131.1.021.156-.027.154-.129v-.101c.08.056.103.154.08.248-.013.053-.013.109-.02.181-.091.069-.183.215-.351.091.104-.097.104-.097.02-.236z"/><path fill="#eab391" style="fill:var(--color13,#eab391)" d="M9.161 26.137c.035.032.064.063.092.094l-.011.022-.229-.052-.002-.02c.048-.015.096-.03.15-.044z"/><path fill="#efbe9a" style="fill:var(--color14,#efbe9a)" d="m9.274 24.032.1-.001c-.016.042-.025.073-.04.101-.003.005-.039.003-.041-.003a.293.293 0 0 1-.019-.097z"/><path fill="#f5c9a3" style="fill:var(--color12,#f5c9a3)" d="M9.153 29.12a.36.36 0 0 1-.078-.008c-.035-.009-.068-.021-.102-.031.027-.039.07-.074.073-.111.003-.041-.029-.086-.05-.127-.053-.106-.103-.212-.091-.333l.034-.012c.02.052.042.104.059.157.021.063.048.12.124.13.093.012.143-.033.141-.127v-.101c.078.047.103.146.08.241-.013.053-.012.109-.02.183a9.656 9.656 0 0 1-.17.138z"/><path fill="#ecb794" style="fill:var(--color15,#ecb794)" d="m9.189 29.99-.178-.044c.123-.088.166-.081.239.046-.021 0-.038 0-.061-.002z"/></symbol><symbol id="icon-mature" viewBox="0 0 24 24"><g fill="transparent" stroke-linecap="round" stroke-linejoin="round" stroke-width="2"><path d="M3 12a9 9 0 1 0 18 0 9 9 0 1 0-18 0"/><path d="M10 10.5a1.5 1.5 0 1 0 3 0 1.5 1.5 0 1 0-3 0"/><path d="M10 13.5a1.5 1.5 0 1 0 3 0 1.5 1.5 0 1 0-3 0M7 15V9m8.5 3h3M17 10.5v3"/></g></symbol></defs></svg>