<svg xmlns="http://www.w3.org/2000/svg" width="32" height="32"><path fill="#41479b" d="M29.603 5.517H2.396A2.397 2.397 0 0 0-.001 7.914v16.172a2.397 2.397 0 0 0 2.397 2.397h27.207A2.397 2.397 0 0 0 32 24.086V7.914a2.397 2.397 0 0 0-2.397-2.397z"/><path fill="#f5f5f5" d="M31.967 7.518a2.397 2.397 0 0 0-2.363-2h-.624l-10.221 6.697V5.518h-5.517v6.697L3.021 5.518h-.624a2.395 2.395 0 0 0-2.363 2l8.736 5.724H.001v5.517H8.77L.034 24.483a2.397 2.397 0 0 0 2.363 2h.624l10.221-6.697v6.697h5.517v-6.697l10.221 6.697h.624a2.395 2.395 0 0 0 2.363-2l-8.736-5.724H32v-5.517h-8.769l8.736-5.724z"/><path fill="#ff4b55" d="M17.655 5.517h-3.31v8.828H0v3.31h14.345v8.828h3.31v-8.828H32v-3.31H17.655z"/><path fill="#ff4b55" d="m1.55 26.328 11.661-7.57h-2.027L.576 25.644c.26.303.593.54.973.684zM21.649 18.759h-2.027l11.295 7.332c.316-.208.58-.488.768-.817L21.649 18.76zM.253 6.842l9.858 6.399h2.027L.967 5.99c-.3.223-.545.515-.714.852zM20.785 13.241l10.627-6.898a2.402 2.402 0 0 0-.981-.679l-11.673 7.577h2.027z"/></svg>