<svg xmlns="http://www.w3.org/2000/svg" aria-hidden="true" style="position:absolute;width:0;height:0;overflow:hidden"><defs><symbol id="icon-heart_footer" viewBox="0 0 34 32"><path fill="#ff6b08" d="m17.231 31.705-2.412-2.412C5.859 21.367.001 16.025.001 9.478.001 4.136 4.136.001 9.478.001c2.929 0 5.858 1.378 7.754 3.618 1.895-2.24 4.825-3.618 7.754-3.618 5.342 0 9.477 4.135 9.477 9.477 0 6.548-5.858 11.889-14.818 19.815l-2.412 2.412z" style="fill:var(--color1, #ff6b08)"/></symbol><symbol id="icon-film_header" viewBox="0 0 32 32"><path fill="none" stroke="#fff" stroke-linecap="round" stroke-linejoin="round" stroke-width="2.667" d="M26.427 2.667H5.574a2.907 2.907 0 0 0-2.907 2.907v20.853a2.907 2.907 0 0 0 2.907 2.907h20.853a2.907 2.907 0 0 0 2.907-2.907V5.574a2.907 2.907 0 0 0-2.907-2.907zM9.333 2.667v26.667M22.667 2.667v26.667M2.667 16h26.667M2.667 9.333h6.667M2.667 22.667h6.667M22.667 22.667h6.667M22.667 9.333h6.667" style="stroke:var(--color2, #fff)"/></symbol><symbol id="icon-search_header" viewBox="0 0 32 32"><path fill="none" stroke="#fff" stroke-linecap="round" stroke-linejoin="round" stroke-width="2.667" d="M14.667 25.333c5.891 0 10.667-4.776 10.667-10.667S20.558 3.999 14.667 3.999 4 8.775 4 14.666s4.776 10.667 10.667 10.667zM28 28.001l-5.8-5.8" style="stroke:var(--color2, #fff)"/></symbol><symbol id="icon-sun" viewBox="0 0 32 32"><path d="M16 9c-3.859 0-7 3.141-7 7s3.141 7 7 7 7-3.141 7-7-3.141-7-7-7zm0-2a1 1 0 0 0 1-1V4a1 1 0 0 0-2 0v2a1 1 0 0 0 1 1zm0 18a1 1 0 0 0-1 1v2a1 1 0 1 0 2 0v-2a1 1 0 0 0-1-1zm7.776-15.365 1.414-1.414a.999.999 0 1 0-1.414-1.414l-1.414 1.414a.999.999 0 1 0 1.414 1.414zM8.221 22.366 6.807 23.78a.999.999 0 1 0 1.414 1.414l1.414-1.414c.391-.393.391-1.023 0-1.414s-1.023-.393-1.414 0zM7 16a1 1 0 0 0-1-1H4a1 1 0 1 0 0 2h2a1 1 0 0 0 1-1zm21-1h-2a1 1 0 1 0 0 2h2a1 1 0 1 0 0-2zM8.22 9.635a.999.999 0 1 0 1.414-1.414L8.22 6.807a.999.999 0 1 0-1.414 1.414L8.22 9.635zm15.559 12.728c-.393-.391-1.023-.391-1.414 0s-.393 1.023 0 1.414l1.414 1.414a.999.999 0 1 0 1.414-1.414l-1.414-1.414z"/></symbol><symbol id="icon-moon" viewBox="0 0 32 32"><path d="M15.505 16.496c-1.97-1.971-2.499-4.819-1.626-7.284a6.946 6.946 0 0 0-2.616 1.626 7 7 0 0 0 9.898 9.9 6.896 6.896 0 0 0 1.626-2.616c-2.463.872-5.312.344-7.283-1.626z"/></symbol><symbol id="icon-arrow-up" viewBox="0 0 32 32"><path d="m27.414 12.586-10-10a2 2 0 0 0-2.828 0l-10 10a2 2 0 1 0 2.828 2.828L14 8.828V28a2 2 0 1 0 4 0V8.828l6.586 6.586c.39.39.902.586 1.414.586s1.024-.195 1.414-.586a2 2 0 0 0 0-2.828z"/></symbol></defs></svg>