<svg aria-hidden="true" style="position: absolute; width: 0; height: 0; overflow: hidden;" version="1.1" xmlns="http://www.w3.org/2000/svg" xmlns:xlink="http://www.w3.org/1999/xlink">
<defs>
<symbol id="icon-github" viewBox="0 0 24 28">
<path d="M12 2c6.625 0 12 5.375 12 12 0 5.297-3.437 9.797-8.203 11.391-0.609 0.109-0.828-0.266-0.828-0.578 0-0.391 0.016-1.687 0.016-3.297 0-1.125-0.375-1.844-0.812-2.219 2.672-0.297 5.484-1.313 5.484-5.922 0-1.313-0.469-2.375-1.234-3.219 0.125-0.313 0.531-1.531-0.125-3.187-1-0.313-3.297 1.234-3.297 1.234-0.953-0.266-1.984-0.406-3-0.406s-2.047 0.141-3 0.406c0 0-2.297-1.547-3.297-1.234-0.656 1.656-0.25 2.875-0.125 3.187-0.766 0.844-1.234 1.906-1.234 3.219 0 4.594 2.797 5.625 5.469 5.922-0.344 0.313-0.656 0.844-0.766 1.609-0.688 0.313-2.438 0.844-3.484-1-0.656-1.141-1.844-1.234-1.844-1.234-1.172-0.016-0.078 0.734-0.078 0.734 0.781 0.359 1.328 1.75 1.328 1.75 0.703 2.141 4.047 1.422 4.047 1.422 0 1 0.016 1.937 0.016 2.234 0 0.313-0.219 0.688-0.828 0.578-4.766-1.594-8.203-6.094-8.203-11.391 0-6.625 5.375-12 12-12zM4.547 19.234c0.031-0.063-0.016-0.141-0.109-0.187-0.094-0.031-0.172-0.016-0.203 0.031-0.031 0.063 0.016 0.141 0.109 0.187 0.078 0.047 0.172 0.031 0.203-0.031zM5.031 19.766c0.063-0.047 0.047-0.156-0.031-0.25-0.078-0.078-0.187-0.109-0.25-0.047-0.063 0.047-0.047 0.156 0.031 0.25 0.078 0.078 0.187 0.109 0.25 0.047zM5.5 20.469c0.078-0.063 0.078-0.187 0-0.297-0.063-0.109-0.187-0.156-0.266-0.094-0.078 0.047-0.078 0.172 0 0.281s0.203 0.156 0.266 0.109zM6.156 21.125c0.063-0.063 0.031-0.203-0.063-0.297-0.109-0.109-0.25-0.125-0.313-0.047-0.078 0.063-0.047 0.203 0.063 0.297 0.109 0.109 0.25 0.125 0.313 0.047zM7.047 21.516c0.031-0.094-0.063-0.203-0.203-0.25-0.125-0.031-0.266 0.016-0.297 0.109s0.063 0.203 0.203 0.234c0.125 0.047 0.266 0 0.297-0.094zM8.031 21.594c0-0.109-0.125-0.187-0.266-0.172-0.141 0-0.25 0.078-0.25 0.172 0 0.109 0.109 0.187 0.266 0.172 0.141 0 0.25-0.078 0.25-0.172zM8.937 21.438c-0.016-0.094-0.141-0.156-0.281-0.141-0.141 0.031-0.234 0.125-0.219 0.234 0.016 0.094 0.141 0.156 0.281 0.125s0.234-0.125 0.219-0.219z"></path>
</symbol>
<symbol id="icon-close-btn" viewBox="0 0 32 32">
<path stroke-width="2.1333" stroke-miterlimit="4" stroke-linecap="butt" stroke-linejoin="miter" d="M8.533 8.533l14.933 14.933"></path>
<path stroke-width="2.1333" stroke-miterlimit="4" stroke-linecap="butt" stroke-linejoin="miter" d="M8.533 23.467l14.933-14.933"></path>
</symbol>
<symbol id="icon-heart_footer" viewBox="0 0 35 32">
<path fill="#ff6b08" d="M17.231 31.705l-2.412-2.412c-8.96-7.926-14.818-13.268-14.818-19.815 0-5.342 4.135-9.477 9.477-9.477 2.929 0 5.858 1.378 7.754 3.618 1.895-2.24 4.825-3.618 7.754-3.618 5.342 0 9.477 4.135 9.477 9.477 0 6.548-5.858 11.889-14.818 19.815l-2.412 2.412z" style="fill:var(--color1, #ff6b08)"></path>
</symbol>
<symbol id="icon-film_header" viewBox="0 0 32 32">
<path stroke-width="2.6667" stroke-miterlimit="4" stroke-linecap="round" stroke-linejoin="round" d="M26.427 2.667h-20.853c-1.605 0-2.907 1.301-2.907 2.907v20.853c0 1.605 1.301 2.907 2.907 2.907h20.853c1.605 0 2.907-1.301 2.907-2.907v-20.853c0-1.605-1.301-2.907-2.907-2.907z"></path>
<path stroke-width="2.6667" stroke-miterlimit="4" stroke-linecap="round" stroke-linejoin="round" d="M9.333 2.667v26.667"></path>
<path stroke-width="2.6667" stroke-miterlimit="4" stroke-linecap="round" stroke-linejoin="round" d="M22.667 2.667v26.667"></path>
<path stroke-width="2.6667" stroke-miterlimit="4" stroke-linecap="round" stroke-linejoin="round" d="M2.667 16h26.667"></path>
<path stroke-width="2.6667" stroke-miterlimit="4" stroke-linecap="round" stroke-linejoin="round" d="M2.667 9.333h6.667"></path>
<path stroke-width="2.6667" stroke-miterlimit="4" stroke-linecap="round" stroke-linejoin="round" d="M2.667 22.667h6.667"></path>
<path stroke-width="2.6667" stroke-miterlimit="4" stroke-linecap="round" stroke-linejoin="round" d="M22.667 22.667h6.667"></path>
<path stroke-width="2.6667" stroke-miterlimit="4" stroke-linecap="round" stroke-linejoin="round" d="M22.667 9.333h6.667"></path>
</symbol>
<symbol id="icon-search_header" viewBox="0 0 32 32">
<path stroke-width="2.6667" stroke-miterlimit="4" stroke-linecap="round" stroke-linejoin="round" d="M14.667 25.333c5.891 0 10.667-4.776 10.667-10.667s-4.776-10.667-10.667-10.667c-5.891 0-10.667 4.776-10.667 10.667s4.776 10.667 10.667 10.667z"></path>
<path stroke-width="2.6667" stroke-miterlimit="4" stroke-linecap="round" stroke-linejoin="round" d="M28 28.001l-5.8-5.8"></path>
</symbol>
<symbol id="icon-sun" viewBox="0 0 32 32">
<path d="M16 9c-3.859 0-7 3.141-7 7s3.141 7 7 7 7-3.141 7-7c0-3.859-3.141-7-7-7zM16 7c0.552 0 1-0.447 1-1v-2c0-0.552-0.448-1-1-1-0.553 0-1 0.448-1 1v2c0 0.553 0.447 1 1 1zM16 25c-0.553 0-1 0.448-1 1v2c0 0.553 0.447 1 1 1 0.552 0 1-0.447 1-1v-2c0-0.552-0.448-1-1-1zM23.776 9.635l1.414-1.414c0.391-0.391 0.391-1.023 0-1.414s-1.023-0.391-1.414 0l-1.414 1.414c-0.391 0.391-0.391 1.023 0 1.414s1.023 0.391 1.414 0zM8.221 22.366l-1.414 1.414c-0.391 0.391-0.391 1.023 0 1.414s1.023 0.391 1.414 0l1.414-1.414c0.391-0.393 0.391-1.023 0-1.414s-1.023-0.393-1.414 0zM7 16c0-0.552-0.448-1-1-1h-2c-0.553 0-1 0.448-1 1 0 0.553 0.447 1 1 1h2c0.552 0 1-0.447 1-1zM28 15h-2c-0.553 0-1 0.448-1 1 0 0.553 0.447 1 1 1h2c0.552 0 1-0.447 1-1 0-0.552-0.448-1-1-1zM8.22 9.635c0.391 0.391 1.023 0.391 1.414 0s0.391-1.023 0-1.414l-1.414-1.414c-0.391-0.391-1.024-0.391-1.414 0s-0.391 1.023 0 1.414l1.414 1.414zM23.779 22.363c-0.393-0.391-1.023-0.391-1.414 0s-0.393 1.023 0 1.414l1.414 1.414c0.391 0.391 1.023 0.391 1.414 0s0.391-1.023 0-1.414l-1.414-1.414z"></path>
</symbol>
<symbol id="icon-moon" viewBox="0 0 32 32">
<path d="M15.505 16.496c-1.97-1.971-2.499-4.819-1.626-7.284-0.953 0.337-1.854 0.865-2.616 1.626-2.734 2.734-2.734 7.167 0 9.9 2.733 2.733 7.164 2.735 9.898 0 0.764-0.762 1.29-1.663 1.626-2.616-2.463 0.872-5.312 0.344-7.283-1.626z"></path>
</symbol>
<symbol id="icon-arrow-up" viewBox="0 0 32 32">
<path d="M27.414 12.586l-10-10c-0.781-0.781-2.047-0.781-2.828 0l-10 10c-0.781 0.781-0.781 2.047 0 2.828s2.047 0.781 2.828 0l6.586-6.586v19.172c0 1.105 0.895 2 2 2s2-0.895 2-2v-19.172l6.586 6.586c0.39 0.39 0.902 0.586 1.414 0.586s1.024-0.195 1.414-0.586c0.781-0.781 0.781-2.047 0-2.828z"></path>
</symbol>
<symbol id="icon-linkedin" viewBox="0 0 32 32">
<path d="M29 0h-26c-1.65 0-3 1.35-3 3v26c0 1.65 1.35 3 3 3h26c1.65 0 3-1.35 3-3v-26c0-1.65-1.35-3-3-3zM12 26h-4v-14h4v14zM10 10c-1.106 0-2-0.894-2-2s0.894-2 2-2c1.106 0 2 0.894 2 2s-0.894 2-2 2zM26 26h-4v-8c0-1.106-0.894-2-2-2s-2 0.894-2 2v8h-4v-14h4v2.481c0.825-1.131 2.087-2.481 3.5-2.481 2.488 0 4.5 2.238 4.5 5v9z"></path>
</symbol>
<symbol id="icon-btn-filter" viewBox="0 0 32 32">
<path d="M15.136 14.72c0.88 0 1.52-0.176 1.904-0.512 0.384-0.32 0.592-0.864 0.592-1.632 0-0.752-0.208-1.28-0.592-1.616-0.384-0.32-1.024-0.48-1.904-0.48h-1.792v4.24h1.792zM13.344 17.648v6.24h-4.256v-16.496h6.496c2.176 0 3.76 0.368 4.768 1.104 1.024 0.72 1.52 1.872 1.52 3.456 0 1.088-0.256 1.984-0.784 2.688-0.528 0.688-1.312 1.216-2.384 1.536 0.592 0.144 1.104 0.448 1.568 0.912s0.928 1.168 1.392 2.128l2.32 4.672h-4.528l-2.016-4.096c-0.4-0.816-0.816-1.392-1.232-1.68-0.416-0.304-0.976-0.464-1.664-0.464h-1.2z"></path>
</symbol>
<symbol id="placeholder" viewBox="0 0 32 32">
<path fill="#ffafa6" style="fill: var(--color2, #ffafa6)" d="M7.932 22.701c-0.299-0.022-0.599-0.043-0.898-0.067-0.241-0.020-0.483-0.039-0.723-0.068-0.272-0.034-0.545-0.068-0.815-0.121-0.401-0.078-0.802-0.164-1.199-0.262-0.45-0.111-0.888-0.259-1.307-0.461-0.295-0.142-0.577-0.303-0.809-0.535-0.129-0.129-0.234-0.28-0.271-0.466-0.006-0.029-0.010-0.060-0.010-0.090-0-5.469-0-10.938-0-16.407 0-0.019 0-0.039 0-0.075 0.026 0.023 0.045 0.037 0.060 0.053 0.311 0.334 0.698 0.532 1.145 0.592 0.698 0.093 1.308-0.096 1.794-0.621 0.186-0.201 0.306-0.442 0.364-0.71 0.013-0.061 0.040-0.083 0.096-0.091 0.507-0.080 0.849-0.384 1.095-0.813 0.209-0.364 0.298-0.761 0.296-1.179-0-0.050-0-0.099-0-0.157 0.126-0.013 0.248-0.031 0.371-0.038 0.328-0.019 0.656-0.042 0.984-0.049 0.574-0.012 1.148-0.016 1.722-0.016 0.221-0 0.441 0.016 0.662 0.033 0.293 0.023 0.586 0.051 0.879 0.082 0.284 0.030 0.569 0.059 0.851 0.102 0.301 0.046 0.602 0.096 0.898 0.167 0.417 0.099 0.833 0.206 1.242 0.334 0.437 0.137 0.855 0.324 1.233 0.591 0.204 0.144 0.382 0.311 0.483 0.543 0.033 0.076 0.056 0.164 0.056 0.247 0.003 5.799 0.002 11.599 0.003 17.398 0 0.182-0.082 0.332-0.193 0.464-0.086 0.102-0.19 0.19-0.292 0.279-0.060 0.053-0.072 0.114-0.063 0.187 0.005 0.047 0.012 0.093 0.012 0.14 0.001 0.9 0.001 1.8 0.001 2.7 0 0.18-0.136 0.343-0.315 0.377-0.164 0.032-0.337-0.070-0.4-0.241-0.019-0.050-0.031-0.107-0.031-0.16-0.002-0.775-0.001-1.55-0.001-2.325-0-0.153-0.069-0.192-0.213-0.141-0.249 0.089-0.5 0.173-0.753 0.249-0.087 0.026-0.095 0.081-0.097 0.149-0.001 0.044 0.007 0.088 0.007 0.132 0.001 0.928 0.002 1.855-0.001 2.783-0.001 0.229-0.045 0.448-0.217 0.619-0.227 0.225-0.502 0.285-0.797 0.182-0.281-0.099-0.445-0.311-0.484-0.612-0.008-0.063-0.015-0.127-0.015-0.19-0.001-0.844-0.001-1.689-0.001-2.533 0-0.030 0.001-0.063-0.009-0.090-0.023-0.059-0.061-0.092-0.135-0.081-0.201 0.030-0.403 0.056-0.604 0.079-0.265 0.030-0.53 0.057-0.796 0.082-0.118 0.011-0.237 0.013-0.371 0.019-0.288 0.011-0.561 0.031-0.834 0.031-0.534 0.001-1.068-0.009-1.602-0.014zM7.201 20.328c0.083 0.175 0.232 0.289 0.388 0.388 0.374 0.239 0.793 0.351 1.231 0.379 0.303 0.020 0.608 0.017 0.91-0.045 0.345-0.071 0.674-0.18 0.961-0.389 0.143-0.104 0.277-0.221 0.349-0.406 0.142-0.294 0.085-0.612-0.145-0.857-0.212-0.227-0.473-0.371-0.763-0.468-0.424-0.142-0.858-0.19-1.306-0.151-0.294 0.025-0.578 0.082-0.853 0.187-0.289 0.111-0.543 0.27-0.735 0.52-0.189 0.246-0.206 0.582-0.036 0.841zM10.446 6.278c-0.090 0.073-0.182 0.143-0.268 0.221-0.052 0.047-0.089 0.044-0.132-0.006-0.061-0.071-0.128-0.138-0.185-0.212-0.305-0.399-0.519-0.845-0.677-1.32-0.037-0.112-0.034-0.118 0.064-0.178 0.138-0.084 0.201-0.208 0.185-0.368-0.013-0.13-0.082-0.228-0.201-0.28-0.212-0.093-0.396-0.007-0.491 0.172-0.101 0.192-0.004 0.431 0.171 0.493 0.068 0.024 0.081 0.062 0.058 0.134-0.112 0.349-0.255 0.684-0.446 0.995-0.125 0.203-0.28 0.387-0.422 0.578-0.038 0.051-0.077 0.060-0.131 0.012-0.098-0.089-0.202-0.171-0.304-0.27-0.006-0.613-0.002-1.225-0.021-1.838-0.010-0.315-0.169-0.571-0.406-0.778-0.352-0.308-0.756-0.381-1.198-0.252-0.501 0.146-0.859 0.635-0.859 1.157-0 0.527-0 1.054-0.011 1.577-0.013-0.014-0.025-0.029-0.039-0.043-0.093-0.091-0.116-0.173-0.027-0.294 0.084-0.115 0.055-0.255-0.028-0.37-0.089-0.121-0.255-0.172-0.392-0.133-0.172 0.050-0.29 0.21-0.27 0.368 0.026 0.205 0.162 0.333 0.358 0.343 0.035 0.002 0.085 0.014 0.102 0.039 0.106 0.15 0.205 0.305 0.306 0.474-0 2.655-0 5.309 0 7.964 0 0.074 0.005 0.149 0.016 0.223 0.054 0.342 0.22 0.618 0.504 0.817 0.251 0.175 0.531 0.262 0.838 0.213 0.151-0.024 0.312-0.051 0.443-0.122 0.452-0.244 0.68-0.634 0.681-1.15 0.001-1.674 0.001-3.349 0.015-5.025 0.024 0.005 0.048 0.013 0.072 0.015 0.322 0.023 0.644 0.057 0.966 0.064 0.357 0.008 0.715-0.002 1.072-0.016 0.22-0.009 0.438-0.040 0.658-0.046 0 1.666-0 3.332 0.001 4.998 0 0.094 0.002 0.189 0.017 0.281 0.050 0.299 0.196 0.546 0.431 0.734 0.268 0.215 0.574 0.307 0.92 0.27 0.35-0.038 0.627-0.199 0.847-0.467 0.202-0.246 0.265-0.538 0.265-0.845 0.002-2.596 0.001-5.192 0-7.789 0-0.028-0.013-0.056-0.017-0.096 0.107-0.16 0.211-0.322 0.321-0.48 0.029-0.042 0.063-0.076 0.128-0.076 0.272-0.001 0.438-0.292 0.308-0.532-0.103-0.189-0.339-0.239-0.536-0.114-0.154 0.098-0.19 0.349-0.070 0.505 0.033 0.043 0.053 0.087 0.015 0.135-0.047 0.060-0.097 0.118-0.147 0.161-0-0.489 0.001-0.977-0.001-1.466-0.001-0.107-0.007-0.216-0.026-0.321-0.048-0.277-0.183-0.507-0.392-0.694-0.302-0.27-0.658-0.365-1.052-0.299-0.275 0.046-0.509 0.18-0.698 0.388-0.187 0.206-0.305 0.448-0.31 0.725-0.011 0.605-0.003 1.21-0.008 1.825zM6.107 17.269c0.003 0.082-0.004 0.166 0.011 0.246 0.052 0.278 0.221 0.461 0.486 0.548 0.266 0.087 0.51 0.029 0.716-0.16 0.356-0.328 0.285-0.897-0.115-1.148-0.425-0.267-1.028 0.002-1.097 0.513zM11.142 16.666c-0.184 0.026-0.33 0.119-0.445 0.262-0.24 0.3-0.211 0.696 0.060 0.962 0.174 0.171 0.392 0.243 0.639 0.192 0.361-0.074 0.604-0.397 0.584-0.75-0.012-0.212-0.108-0.392-0.281-0.524-0.16-0.122-0.339-0.183-0.557-0.142z"></path>
<path fill="#fbd5ac" style="fill: var(--color3, #fbd5ac)" d="M10.365 24c0.001 0.033 0.002 0.067 0.002 0.1 0 2.13 0.002 4.26-0.002 6.39-0.001 0.476-0.203 0.859-0.62 1.1-0.229 0.133-0.483 0.189-0.756 0.148-0.269-0.041-0.504-0.149-0.693-0.337-0.24-0.239-0.363-0.533-0.363-0.878 0.002-2.169 0.001-4.337 0.010-6.514 0.255-0.009 0.502-0.010 0.754-0.008 0.077 0.010 0.148 0.016 0.22 0.028 0 0.011 0 0.017-0.004 0.027-0.093 0.133-0.201 0.258-0.11 0.434-0.165 0.096-0.161 0.253-0.149 0.407 0.012 0.153 0.052 0.299 0.158 0.416-0.086 0.093-0.089 0.13-0.027 0.232 0.028 0.045 0.052 0.092 0.085 0.134 0.043 0.055 0.037 0.096-0.004 0.153-0.070 0.098-0.175 0.189-0.118 0.335 0.004 0.010-0.011 0.029-0.019 0.042-0.044 0.076-0.030 0.138 0.049 0.18 0.038 0.021 0.082 0.033 0.124 0.045 0.099 0.028 0.199 0.054 0.313 0.084-0.084 0.070-0.19 0.121-0.151 0.225 0.031 0.082 0.11 0.145 0.174 0.225-0.121 0.036-0.245 0.073-0.368 0.11-0.098 0.029-0.14 0.083-0.123 0.157 0.016 0.070 0.088 0.111 0.18 0.090 0.111-0.025 0.222-0.054 0.329-0.091s0.213-0.081 0.312-0.135c0.092-0.051 0.1-0.146 0.030-0.225-0.027-0.030-0.065-0.051-0.098-0.077-0.027-0.021-0.052-0.042-0.084-0.068 0.040-0.029 0.070-0.049 0.097-0.072 0.030-0.025 0.060-0.050 0.085-0.080 0.070-0.083 0.052-0.177-0.044-0.23-0.036-0.020-0.076-0.032-0.118-0.049 0.013-0.022 0.033-0.041 0.033-0.059-0-0.171 0.101-0.263 0.237-0.345 0.087-0.052 0.069-0.164-0.018-0.221-0.039-0.026-0.081-0.048-0.124-0.069-0.047-0.024-0.067-0.056-0.066-0.112 0.002-0.076-0.008-0.152-0.014-0.238 0.098-0.047 0.139-0.15 0.125-0.256-0.017-0.124-0.053-0.249-0.106-0.362-0.052-0.111-0.176-0.158-0.292-0.113-0.097 0.038-0.153-0.006-0.221-0.056 0.033-0.070 0.063-0.135 0.098-0.209 0.019 0.025 0.028 0.038 0.038 0.051 0.161 0.215 0.37 0.197 0.481-0.049 0.035-0.078 0.035-0.172 0.058-0.258 0.238-0 0.469-0 0.7-0.001zM9.623 30.655c-0.066-0.060-0.132-0.121-0.2-0.183 0.054-0.045 0.11-0.086 0.158-0.135 0.095-0.097 0.067-0.213-0.060-0.262-0.028-0.011-0.056-0.019-0.077-0.027 0.018-0.056 0.047-0.106 0.046-0.155-0.003-0.101 0.041-0.154 0.13-0.192 0.072-0.030 0.14-0.078 0.138-0.171-0.002-0.087-0.074-0.117-0.138-0.151-0.010-0.005-0.019-0.012-0.029-0.016-0.075-0.029-0.1-0.082-0.093-0.162 0.005-0.064-0.008-0.13-0.013-0.195 0.219-0.191 0.111-0.405 0.038-0.622 0.122-0.023 0.143-0.115 0.143-0.213-0-0.088-0.008-0.178-0.024-0.265-0.009-0.053-0.034-0.106-0.062-0.152-0.036-0.058-0.094-0.067-0.154-0.038-0.056 0.027-0.081 0.073-0.072 0.136 0.003 0.019 0.008 0.037 0.013 0.064-0.035 0-0.065-0-0.095 0-0.128 0.001-0.256-0.003-0.383 0.006-0.090 0.006-0.136 0.062-0.132 0.132 0.004 0.071 0.065 0.121 0.151 0.123 0.025 0.001 0.050 0 0.075 0 0.138 0 0.276 0 0.417 0 0 0.038 0 0.064 0 0.080-0.074 0.004-0.145-0.002-0.21 0.014-0.052 0.013-0.088 0.015-0.137-0.016-0.16-0.104-0.355-0.017-0.389 0.171-0.042 0.229 0.003 0.44 0.142 0.631-0.086 0.107-0.086 0.128-0.008 0.254 0.012 0.019 0.020 0.041 0.035 0.056 0.082 0.087 0.078 0.165-0.003 0.257-0.068 0.078-0.134 0.168-0.083 0.287 0.004 0.008-0.008 0.025-0.014 0.036-0.050 0.090-0.034 0.151 0.059 0.195 0.040 0.019 0.084 0.029 0.126 0.041 0.094 0.027 0.188 0.052 0.295 0.081-0.084 0.072-0.195 0.122-0.148 0.233 0.035 0.080 0.114 0.142 0.176 0.216-0.129 0.038-0.259 0.075-0.389 0.114-0.083 0.025-0.123 0.083-0.108 0.153 0.013 0.063 0.080 0.114 0.155 0.092 0.217-0.064 0.432-0.137 0.645-0.215 0.083-0.030 0.115-0.101 0.077-0.202z"></path>
<path fill="#ffafa6" style="fill: var(--color2, #ffafa6)" d="M15.813 30.62c0.072 0.077 0.15 0.143 0.203 0.225 0.097 0.15 0.058 0.334-0.087 0.484-0.134 0.139-0.301 0.225-0.48 0.291-0.262 0.096-0.533 0.144-0.81 0.167-0.471 0.038-0.929-0.009-1.374-0.169-0.177-0.063-0.34-0.15-0.473-0.286-0.186-0.192-0.187-0.421-0.001-0.613 0.134-0.139 0.301-0.224 0.48-0.29 0.262-0.096 0.533-0.144 0.811-0.166 0.453-0.037 0.897 0.003 1.326 0.155 0.139 0.050 0.268 0.131 0.406 0.201z"></path>
<path fill="#eec9a3" style="fill: var(--color4, #eec9a3)" d="M10.365 23.992c-0.232 0.008-0.462 0.008-0.702 0.001-0.012-0.16-0.012-0.314-0.141-0.431 0.109-0.097 0.128-0.216 0.111-0.346-0.024-0.19-0.189-0.363-0.377-0.395-0.202-0.034-0.43 0.068-0.507 0.226-0.071 0.146-0.012 0.438 0.111 0.552 0.051 0.047 0.112 0.056 0.166 0.014 0.052-0.041 0.066-0.098 0.030-0.163-0.031-0.055-0.063-0.112-0.080-0.173-0.011-0.038-0.007-0.092 0.014-0.125 0.057-0.093 0.219-0.104 0.312-0.029 0.096 0.078 0.102 0.184 0.017 0.276-0.065 0.070-0.076 0.157-0.011 0.204 0.061 0.044 0.048 0.088 0.029 0.145-0.163 0-0.324-0.008-0.484 0.002-0.164 0.010-0.208 0.087-0.161 0.247-0.247 0.001-0.494 0.002-0.748 0.003-0.008-0.428-0.009-0.856-0.011-1.291 0.534-0.002 1.068 0.007 1.602 0.006 0.273-0 0.546-0.020 0.826-0.031 0.007 0.434 0.006 0.867 0.005 1.308z"></path>
<path fill="#f19a91" style="fill: var(--color5, #f19a91)" d="M12.912 6.532c0.007 0.028 0.020 0.056 0.020 0.084 0.001 2.596 0.002 5.192-0 7.789-0 0.307-0.064 0.599-0.265 0.845-0.22 0.269-0.498 0.43-0.847 0.467-0.346 0.037-0.652-0.055-0.92-0.27-0.235-0.189-0.382-0.435-0.431-0.734-0.015-0.092-0.017-0.187-0.017-0.281-0.001-1.666-0.001-3.332 0.006-5.007 0.048-0.014 0.089-0.017 0.129-0.026 0.264-0.060 0.529-0.116 0.79-0.186 0.115-0.031 0.231-0.076 0.304-0.19 0.006-0.008 0.008-0.014 0.010-0.020-0.009 0.003-0.017 0.006-0.032 0.010-0.209 0.060-0.409 0.13-0.614 0.176-0.195 0.043-0.396 0.061-0.593 0.083 0-0.728-0-1.449 0.006-2.169 0.642 0.337 1.264 0.266 1.892-0.081-0.177 0.445-0.345 0.868-0.513 1.291 0.254-0.413 0.491-0.832 0.735-1.248 0.107-0.182 0.229-0.356 0.344-0.533z"></path>
<path fill="#f19a91" style="fill: var(--color5, #f19a91)" d="M7.667 9.419c-0 1.674 0 3.349-0.001 5.023-0 0.516-0.228 0.906-0.681 1.15-0.132 0.071-0.292 0.098-0.443 0.122-0.307 0.048-0.587-0.039-0.838-0.213-0.284-0.198-0.45-0.475-0.504-0.817-0.011-0.073-0.016-0.148-0.016-0.223-0.001-2.655-0-5.309 0.005-7.969 0.399 0.588 0.756 1.202 1.082 1.836 0.010-0.004 0.020-0.009 0.030-0.013-0.167-0.419-0.334-0.837-0.508-1.274 0.080 0.039 0.139 0.067 0.198 0.096 0.375 0.185 0.768 0.253 1.178 0.162 0.17-0.038 0.331-0.11 0.497-0.159 0.001 0.719 0.001 1.431-0.006 2.143-0.078-0.010-0.149-0.018-0.219-0.032-0.249-0.052-0.499-0.104-0.747-0.162-0.086-0.020-0.168-0.057-0.251-0.087 0.039 0.056 0.084 0.102 0.138 0.131 0.338 0.182 0.714 0.228 1.085 0.287z"></path>
<path fill="#bb1021" style="fill: var(--color6, #bb1021)" d="M7.666 7.131c-0.165 0.057-0.327 0.129-0.497 0.167-0.41 0.091-0.804 0.023-1.178-0.162-0.059-0.029-0.118-0.057-0.198-0.096 0.174 0.437 0.341 0.856 0.508 1.274-0.010 0.004-0.020 0.009-0.030 0.013-0.325-0.633-0.683-1.248-1.082-1.843-0.107-0.156-0.206-0.311-0.312-0.461-0.018-0.025-0.067-0.037-0.102-0.039-0.196-0.011-0.332-0.138-0.358-0.343-0.020-0.158 0.097-0.318 0.27-0.368 0.136-0.039 0.303 0.012 0.392 0.133 0.084 0.115 0.112 0.255 0.028 0.37-0.089 0.122-0.066 0.204 0.027 0.294 0.014 0.013 0.026 0.028 0.046 0.050 0.13 0.142 0.247 0.283 0.378 0.409 0.21 0.201 0.446 0.367 0.72 0.475 0.061 0.024 0.101 0.011 0.127-0.049 0.027-0.063 0.054-0.127 0.080-0.19 0.149-0.372 0.195-0.764 0.213-1.161 0.003-0.068-0.022-0.112-0.101-0.124-0.192-0.030-0.305-0.201-0.279-0.411 0.020-0.162 0.198-0.317 0.361-0.302 0.143 0.013 0.266 0.066 0.324 0.215 0.055 0.141 0.047 0.27-0.058 0.384-0.046 0.049-0.040 0.088 0 0.136 0.093 0.109 0.175 0.228 0.274 0.33 0.144 0.149 0.299 0.286 0.45 0.428 0.102 0.085 0.206 0.167 0.304 0.255 0.053 0.048 0.093 0.039 0.131-0.012 0.142-0.192 0.297-0.376 0.422-0.578 0.191-0.311 0.334-0.646 0.446-0.995 0.023-0.072 0.010-0.109-0.058-0.134-0.174-0.062-0.272-0.302-0.171-0.493 0.094-0.179 0.279-0.265 0.491-0.172 0.119 0.052 0.188 0.151 0.201 0.28 0.016 0.16-0.048 0.284-0.185 0.368-0.098 0.060-0.101 0.067-0.064 0.178 0.158 0.475 0.372 0.921 0.677 1.32 0.057 0.074 0.124 0.141 0.185 0.212 0.043 0.050 0.081 0.053 0.132 0.006 0.086-0.077 0.178-0.147 0.275-0.228 0.030-0.028 0.051-0.050 0.074-0.070 0.243-0.215 0.47-0.446 0.665-0.706 0.040-0.053 0.043-0.102-0.008-0.153-0.066-0.066-0.091-0.153-0.083-0.242 0.013-0.152 0.090-0.264 0.237-0.319 0.139-0.052 0.305-0.012 0.4 0.102 0.098 0.117 0.103 0.252 0.049 0.389-0.046 0.118-0.143 0.178-0.262 0.207-0.060 0.014-0.082 0.047-0.078 0.107 0.008 0.113 0.011 0.226 0.017 0.339 0.019 0.319 0.104 0.622 0.222 0.918 0.025 0.062 0.061 0.12 0.093 0.181 0.483-0.185 0.846-0.5 1.152-0.887 0.049-0.059 0.099-0.117 0.146-0.177 0.038-0.048 0.017-0.092-0.015-0.135-0.119-0.156-0.084-0.407 0.070-0.505 0.197-0.125 0.434-0.075 0.536 0.114 0.131 0.24-0.035 0.531-0.308 0.532-0.065 0-0.099 0.035-0.128 0.076-0.109 0.158-0.214 0.32-0.322 0.486-0.117 0.183-0.238 0.357-0.345 0.539-0.244 0.415-0.48 0.835-0.735 1.248 0.168-0.423 0.336-0.846 0.513-1.291-0.628 0.347-1.25 0.418-1.897 0.078-0.034-0.019-0.056-0.036-0.079-0.050-0.248-0.15-0.462-0.341-0.642-0.568-0.273-0.346-0.478-0.73-0.614-1.15-0.008-0.025-0.026-0.047-0.054-0.096-0.266 0.801-0.668 1.47-1.396 1.894zM7.644 6.623c-0.198-0.171-0.396-0.343-0.595-0.514-0.028-0.024-0.059-0.046-0.089-0.069-0.009 0.035-0.019 0.069-0.028 0.104-0.005 0.021-0.013 0.043-0.015 0.064-0.016 0.272-0.089 0.529-0.195 0.779-0.015 0.036-0.019 0.077-0.035 0.143 0.17-0.017 0.321-0.022 0.468-0.051 0.178-0.034 0.347-0.101 0.506-0.214 0.048-0.032 0.095-0.064 0.154-0.104-0.065-0.050-0.116-0.090-0.172-0.139zM11.004 7.071c0.12 0.010 0.241 0.022 0.361 0.028 0.092 0.004 0.097-0.009 0.062-0.095-0.115-0.284-0.207-0.573-0.213-0.884-0.001-0.030-0.015-0.060-0.025-0.097-0.29 0.246-0.569 0.483-0.859 0.729 0.204 0.153 0.415 0.268 0.674 0.319z"></path>
<path fill="#f19a91" style="fill: var(--color5, #f19a91)" d="M7.667 6.254c-0.15-0.135-0.306-0.272-0.45-0.421-0.099-0.102-0.181-0.221-0.274-0.33-0.041-0.048-0.046-0.086-0-0.136 0.105-0.113 0.114-0.243 0.058-0.384-0.059-0.149-0.181-0.202-0.324-0.215-0.162-0.015-0.341 0.14-0.361 0.302-0.025 0.21 0.088 0.382 0.279 0.411 0.079 0.012 0.104 0.056 0.101 0.124-0.017 0.397-0.063 0.788-0.213 1.161-0.026 0.064-0.053 0.127-0.080 0.19-0.025 0.060-0.066 0.073-0.127 0.049-0.273-0.108-0.51-0.274-0.72-0.475-0.131-0.126-0.248-0.267-0.373-0.407-0.002-0.532-0.002-1.060-0.002-1.587 0-0.522 0.359-1.011 0.859-1.157 0.442-0.129 0.846-0.056 1.198 0.252 0.236 0.207 0.396 0.463 0.406 0.778 0.019 0.612 0.015 1.225 0.021 1.845z"></path>
<path fill="#f19a91" style="fill: var(--color5, #f19a91)" d="M12.934 6.128c-0.306 0.395-0.669 0.71-1.152 0.895-0.032-0.061-0.068-0.119-0.093-0.181-0.117-0.295-0.203-0.599-0.222-0.918-0.007-0.113-0.010-0.226-0.017-0.339-0.004-0.060 0.018-0.092 0.078-0.107 0.118-0.028 0.215-0.088 0.262-0.207 0.054-0.137 0.049-0.272-0.049-0.389-0.095-0.114-0.261-0.153-0.4-0.102-0.147 0.054-0.224 0.166-0.237 0.319-0.008 0.090 0.017 0.176 0.083 0.242 0.051 0.051 0.048 0.1 0.008 0.153-0.195 0.26-0.422 0.491-0.665 0.706-0.023 0.020-0.044 0.042-0.072 0.065-0.005-0.603-0.013-1.208-0.003-1.813 0.005-0.276 0.123-0.519 0.31-0.725 0.189-0.208 0.423-0.342 0.698-0.388 0.395-0.067 0.75 0.028 1.052 0.299 0.209 0.187 0.344 0.418 0.392 0.694 0.018 0.105 0.025 0.214 0.026 0.321 0.003 0.489 0.001 0.977 0.002 1.474z"></path>
<path fill="#f19a91" style="fill: var(--color5, #f19a91)" d="M7.199 20.316c-0.168-0.247-0.151-0.582 0.037-0.829 0.191-0.25 0.446-0.409 0.735-0.52 0.275-0.105 0.559-0.162 0.853-0.187 0.447-0.039 0.882 0.009 1.306 0.151 0.289 0.097 0.55 0.241 0.763 0.468 0.229 0.245 0.287 0.563 0.136 0.862-0.017 0.004-0.026 0.005-0.033 0.001-0.504-0.29-1.058-0.393-1.628-0.427-0.376-0.023-0.751 0.006-1.121 0.082s-0.728 0.19-1.048 0.398z"></path>
<path fill="#fec3bb" style="fill: var(--color7, #fec3bb)" d="M7.2 20.322c0.32-0.214 0.677-0.328 1.047-0.404s0.745-0.104 1.121-0.082c0.569 0.034 1.124 0.137 1.628 0.427 0.007 0.004 0.016 0.003 0.031 0.005-0.061 0.174-0.195 0.29-0.338 0.395-0.287 0.209-0.616 0.318-0.961 0.389-0.302 0.062-0.607 0.064-0.91 0.045-0.437-0.028-0.857-0.14-1.231-0.379-0.156-0.099-0.305-0.213-0.388-0.394z"></path>
<path fill="#f19a91" style="fill: var(--color5, #f19a91)" d="M6.11 17.263c0.066-0.504 0.669-0.773 1.094-0.506 0.4 0.251 0.471 0.82 0.115 1.148-0.205 0.189-0.449 0.247-0.716 0.16-0.265-0.087-0.434-0.27-0.486-0.548-0.015-0.080-0.008-0.164-0.008-0.253z"></path>
<path fill="#f19a91" style="fill: var(--color5, #f19a91)" d="M11.15 16.666c0.211-0.040 0.389 0.020 0.55 0.142 0.172 0.131 0.268 0.312 0.281 0.524 0.020 0.353-0.223 0.676-0.584 0.75-0.247 0.051-0.466-0.021-0.639-0.192-0.27-0.266-0.3-0.662-0.060-0.962 0.115-0.143 0.261-0.235 0.452-0.262z"></path>
<path fill="#b12" style="fill: var(--color8, #b12)" d="M7.674 9.418c-0.378-0.058-0.754-0.104-1.092-0.286-0.054-0.029-0.099-0.076-0.138-0.131 0.084 0.029 0.165 0.066 0.251 0.087 0.248 0.058 0.497 0.11 0.747 0.162 0.070 0.015 0.141 0.022 0.226 0.033 0.266 0.022 0.518 0.060 0.771 0.063 0.671 0.007 1.344 0.031 2.012-0.065 0.198-0.029 0.399-0.047 0.594-0.090 0.206-0.046 0.406-0.116 0.617-0.173 0.011 0.004 0.014 0.006 0.016 0.008-0.069 0.112-0.185 0.157-0.3 0.188-0.261 0.070-0.526 0.126-0.79 0.186-0.040 0.009-0.081 0.012-0.129 0.019-0.226 0.022-0.445 0.054-0.665 0.062-0.357 0.014-0.715 0.024-1.072 0.016-0.322-0.007-0.644-0.041-0.966-0.064-0.024-0.002-0.048-0.010-0.079-0.014z"></path>
<path fill="#bc1524" style="fill: var(--color9, #bc1524)" d="M8.696 24c-0.053-0.163-0.008-0.24 0.156-0.25 0.16-0.010 0.32-0.002 0.484-0.002 0.019-0.057 0.032-0.1-0.029-0.145-0.065-0.047-0.054-0.134 0.011-0.204 0.085-0.092 0.079-0.198-0.017-0.276-0.093-0.075-0.255-0.064-0.312 0.029-0.020 0.033-0.024 0.087-0.014 0.125 0.017 0.060 0.049 0.117 0.080 0.173 0.036 0.065 0.022 0.122-0.030 0.163-0.054 0.043-0.115 0.034-0.166-0.014-0.123-0.114-0.181-0.406-0.111-0.552 0.077-0.158 0.305-0.26 0.507-0.226 0.188 0.032 0.353 0.205 0.377 0.395 0.017 0.13-0.002 0.25-0.111 0.346 0.13 0.118 0.129 0.271 0.134 0.432-0.014 0.094-0.014 0.188-0.049 0.266-0.111 0.246-0.32 0.263-0.481 0.049-0.010-0.013-0.019-0.026-0.038-0.051-0.035 0.074-0.066 0.14-0.098 0.209 0.068 0.050 0.123 0.094 0.221 0.056 0.115-0.045 0.24 0.002 0.292 0.113 0.053 0.113 0.089 0.238 0.106 0.362 0.015 0.107-0.027 0.209-0.125 0.256 0.006 0.085 0.016 0.162 0.014 0.238-0.002 0.056 0.019 0.088 0.066 0.112 0.042 0.021 0.084 0.043 0.124 0.069 0.088 0.058 0.106 0.169 0.018 0.221-0.137 0.082-0.238 0.174-0.237 0.345 0 0.019-0.020 0.037-0.033 0.059 0.042 0.017 0.082 0.029 0.118 0.049 0.096 0.052 0.114 0.146 0.044 0.23-0.025 0.029-0.055 0.055-0.085 0.080-0.027 0.023-0.057 0.043-0.097 0.072 0.032 0.026 0.058 0.047 0.084 0.068 0.033 0.026 0.070 0.046 0.098 0.077 0.071 0.079 0.062 0.174-0.030 0.225-0.099 0.054-0.205 0.098-0.312 0.135s-0.218 0.066-0.329 0.091c-0.093 0.021-0.165-0.019-0.18-0.090-0.017-0.075 0.025-0.128 0.123-0.157 0.124-0.037 0.247-0.073 0.368-0.11-0.064-0.080-0.143-0.144-0.174-0.225-0.039-0.104 0.067-0.155 0.151-0.225-0.114-0.030-0.214-0.056-0.313-0.084-0.042-0.012-0.086-0.024-0.124-0.045-0.079-0.043-0.093-0.104-0.049-0.18 0.008-0.014 0.023-0.032 0.019-0.042-0.057-0.146 0.048-0.237 0.118-0.335 0.041-0.057 0.047-0.098 0.004-0.153-0.033-0.041-0.057-0.089-0.085-0.134-0.063-0.102-0.059-0.139 0.027-0.232-0.106-0.117-0.146-0.263-0.158-0.416-0.012-0.154-0.015-0.311 0.149-0.407-0.091-0.175 0.017-0.3 0.116-0.434 0.015-0.011 0.020-0.019 0.025-0.027-0.009-0.002-0.018-0.003-0.027-0.005-0.072-0.007-0.143-0.013-0.22-0.023zM8.995 25.096c0.081 0.133 0.081 0.134-0.023 0.23 0.168 0.123 0.26-0.023 0.351-0.091 0.007-0.072 0.007-0.128 0.020-0.181 0.022-0.094-0-0.192-0.080-0.248 0 0.042-0.001 0.071 0 0.101 0.002 0.102-0.054 0.149-0.154 0.129-0.071-0.015-0.092-0.071-0.112-0.131-0.017-0.051-0.038-0.1-0.057-0.149-0.011 0.004-0.023 0.008-0.034 0.012-0.014 0.115 0.036 0.216 0.089 0.328zM9.154 26.137c-0.048 0.015-0.096 0.030-0.144 0.044 0.001 0.007 0.001 0.013 0.002 0.020 0.076 0.017 0.153 0.035 0.229 0.052 0.004-0.007 0.007-0.015 0.011-0.022-0.029-0.031-0.057-0.062-0.099-0.094zM9.268 24.033c0.008 0.032 0.014 0.065 0.026 0.096 0.002 0.006 0.039 0.008 0.041 0.003 0.015-0.028 0.024-0.059 0.040-0.101-0.045 0-0.069 0-0.107 0.002z"></path>
<path fill="#bc1624" style="fill: var(--color10, #bc1624)" d="M9.626 30.661c0.036 0.095 0.004 0.166-0.079 0.196-0.213 0.078-0.428 0.15-0.645 0.215-0.076 0.022-0.142-0.029-0.155-0.092-0.015-0.070 0.025-0.128 0.108-0.153 0.13-0.039 0.26-0.076 0.389-0.114-0.063-0.074-0.142-0.135-0.176-0.216-0.047-0.111 0.063-0.161 0.148-0.233-0.107-0.029-0.202-0.055-0.295-0.081-0.043-0.012-0.087-0.022-0.126-0.041-0.092-0.043-0.109-0.104-0.059-0.195 0.006-0.012 0.018-0.028 0.014-0.036-0.051-0.119 0.015-0.209 0.083-0.287 0.081-0.092 0.085-0.17 0.003-0.257-0.015-0.016-0.023-0.038-0.035-0.056-0.079-0.126-0.078-0.147 0.008-0.254-0.139-0.19-0.184-0.401-0.142-0.631 0.034-0.187 0.229-0.275 0.389-0.171 0.048 0.031 0.084 0.029 0.137 0.016 0.065-0.016 0.136-0.010 0.21-0.014 0-0.016 0-0.042 0-0.080-0.141 0-0.279 0-0.417 0-0.025 0-0.050 0.001-0.075-0-0.086-0.002-0.147-0.052-0.151-0.123-0.004-0.070 0.043-0.125 0.132-0.132 0.127-0.009 0.255-0.005 0.383-0.006 0.030-0 0.060-0 0.095-0-0.006-0.027-0.011-0.045-0.013-0.064-0.009-0.063 0.016-0.109 0.072-0.136 0.060-0.029 0.118-0.019 0.154 0.038 0.028 0.046 0.053 0.099 0.062 0.152 0.016 0.087 0.023 0.176 0.024 0.265 0.001 0.099-0.021 0.191-0.143 0.213 0.073 0.216 0.181 0.431-0.038 0.622 0.005 0.064 0.018 0.13 0.013 0.195-0.007 0.081 0.018 0.133 0.093 0.162 0.010 0.004 0.020 0.011 0.029 0.016 0.064 0.034 0.136 0.064 0.138 0.151 0.002 0.093-0.066 0.141-0.138 0.171-0.090 0.038-0.133 0.091-0.13 0.192 0.001 0.049-0.028 0.099-0.046 0.155 0.021 0.007 0.049 0.016 0.077 0.027 0.127 0.049 0.156 0.165 0.060 0.262-0.048 0.049-0.105 0.090-0.158 0.135 0.068 0.062 0.134 0.122 0.202 0.189zM9.159 29.118c0.061-0.051 0.123-0.101 0.164-0.135 0.008-0.074 0.008-0.13 0.020-0.183 0.023-0.096-0.002-0.195-0.080-0.241 0 0.039-0 0.070 0 0.101 0.002 0.094-0.048 0.139-0.141 0.127-0.075-0.010-0.103-0.066-0.124-0.13-0.018-0.053-0.039-0.105-0.059-0.157-0.011 0.004-0.023 0.008-0.034 0.012-0.011 0.121 0.038 0.227 0.091 0.333 0.021 0.041 0.053 0.086 0.050 0.127-0.003 0.037-0.046 0.072-0.073 0.111 0.034 0.010 0.067 0.022 0.102 0.031 0.024 0.006 0.048 0.007 0.084 0.006zM9.195 29.992c0.017 0 0.034 0 0.055 0-0.074-0.127-0.116-0.134-0.239-0.046 0.060 0.015 0.116 0.028 0.184 0.046z"></path>
<path fill="#eec9a3" style="fill: var(--color4, #eec9a3)" d="M8.916 24.027c0.009-0.003 0.018-0.002 0.027-0-0.005 0.008-0.011 0.015-0.021 0.023-0.005-0.006-0.005-0.012-0.006-0.023z"></path>
<path fill="#ffafa6" style="fill: var(--color2, #ffafa6)" d="M10.45 9.273c-0.668 0.104-1.341 0.079-2.012 0.073-0.252-0.003-0.504-0.041-0.764-0.064-0.007-0.712-0.008-1.424-0.008-2.143 0.728-0.432 1.131-1.101 1.396-1.902 0.027 0.048 0.045 0.071 0.054 0.096 0.136 0.42 0.341 0.804 0.614 1.15 0.179 0.227 0.393 0.418 0.642 0.568 0.024 0.014 0.046 0.031 0.074 0.049 0.005 0.724 0.005 1.444 0.005 2.173z"></path>
<path fill="#b12" style="fill: var(--color8, #b12)" d="M11.667 9.017c0.006-0.006 0.015-0.009 0.023-0.013-0.002 0.006-0.004 0.011-0.010 0.020-0.006 0-0.008-0.002-0.013-0.007z"></path>
<path fill="#f19a91" style="fill: var(--color5, #f19a91)" d="M10.997 7.070c-0.252-0.050-0.463-0.165-0.667-0.318 0.29-0.246 0.569-0.483 0.859-0.729 0.010 0.037 0.025 0.067 0.025 0.097 0.006 0.31 0.098 0.6 0.213 0.884 0.035 0.087 0.030 0.099-0.062 0.095-0.121-0.005-0.241-0.018-0.368-0.029z"></path>
<path fill="#f19a91" style="fill: var(--color5, #f19a91)" d="M7.65 6.868c-0.147 0.111-0.316 0.178-0.494 0.213-0.147 0.028-0.298 0.033-0.468 0.051 0.016-0.066 0.020-0.107 0.035-0.143 0.105-0.25 0.178-0.507 0.195-0.779 0.001-0.022 0.009-0.043 0.015-0.064 0.009-0.035 0.018-0.069 0.028-0.104 0.030 0.023 0.061 0.044 0.089 0.069 0.199 0.171 0.397 0.343 0.598 0.527 0.003 0.086 0.003 0.159 0.003 0.232z"></path>
<path fill="#fdaca3" style="fill: var(--color11, #fdaca3)" d="M7.656 6.867c-0.006-0.072-0.006-0.145-0.006-0.226 0.051 0.032 0.102 0.071 0.166 0.122-0.059 0.040-0.107 0.072-0.16 0.104z"></path>
<path fill="#f5c9a3" style="fill: var(--color12, #f5c9a3)" d="M8.992 25.091c-0.050-0.107-0.1-0.208-0.086-0.323 0.011-0.004 0.023-0.008 0.034-0.012 0.019 0.050 0.041 0.099 0.057 0.149 0.020 0.060 0.041 0.116 0.112 0.131 0.1 0.021 0.156-0.027 0.154-0.129-0.001-0.030-0-0.060-0-0.101 0.080 0.056 0.103 0.154 0.080 0.248-0.013 0.053-0.013 0.109-0.020 0.181-0.091 0.069-0.183 0.215-0.351 0.091 0.104-0.097 0.104-0.097 0.020-0.236z"></path>
<path fill="#eab391" style="fill: var(--color13, #eab391)" d="M9.161 26.137c0.035 0.032 0.064 0.063 0.092 0.094-0.004 0.007-0.007 0.015-0.011 0.022-0.076-0.017-0.153-0.035-0.229-0.052-0.001-0.007-0.001-0.013-0.002-0.020 0.048-0.015 0.096-0.030 0.15-0.044z"></path>
<path fill="#efbe9a" style="fill: var(--color14, #efbe9a)" d="M9.274 24.032c0.031-0.001 0.055-0.001 0.1-0.001-0.016 0.042-0.025 0.073-0.040 0.101-0.003 0.005-0.039 0.003-0.041-0.003-0.012-0.031-0.018-0.064-0.019-0.097z"></path>
<path fill="#f5c9a3" style="fill: var(--color12, #f5c9a3)" d="M9.153 29.12c-0.030-0.001-0.055-0.002-0.078-0.008-0.035-0.009-0.068-0.021-0.102-0.031 0.027-0.039 0.070-0.074 0.073-0.111 0.003-0.041-0.029-0.086-0.050-0.127-0.053-0.106-0.103-0.212-0.091-0.333 0.011-0.004 0.023-0.008 0.034-0.012 0.020 0.052 0.042 0.104 0.059 0.157 0.021 0.063 0.048 0.12 0.124 0.13 0.093 0.012 0.143-0.033 0.141-0.127-0.001-0.031-0-0.062-0-0.101 0.078 0.047 0.103 0.146 0.080 0.241-0.013 0.053-0.012 0.109-0.020 0.183-0.041 0.034-0.103 0.085-0.17 0.138z"></path>
<path fill="#ecb794" style="fill: var(--color15, #ecb794)" d="M9.189 29.99c-0.062-0.016-0.118-0.029-0.178-0.044 0.123-0.088 0.166-0.081 0.239 0.046-0.021 0-0.038 0-0.061-0.002z"></path>
<symbol>
</defs>
</svg>
