<svg version="1.1" xmlns="http://www.w3.org/2000/svg" width="32" height="32" viewBox="0 0 32 32">
<title>uk-icon</title>
<path fill="#41479b" d="M29.603 5.517h-27.207c-1.324 0-2.397 1.073-2.397 2.397v16.172c0 1.324 1.073 2.397 2.397 2.397h27.207c1.324 0 2.397-1.073 2.397-2.397v-16.172c0-1.324-1.073-2.397-2.397-2.397z"></path>
<path fill="#f5f5f5" d="M31.967 7.518c-0.189-1.135-1.175-2-2.363-2h-0.624l-10.221 6.697v-6.697h-5.517v6.697l-10.221-6.697h-0.624c-1.189 0-2.175 0.865-2.363 2l8.736 5.724h-8.769v5.517h8.769l-8.736 5.724c0.189 1.135 1.175 2 2.363 2h0.624l10.221-6.697v6.697h5.517v-6.697l10.221 6.697h0.624c1.189 0 2.175-0.865 2.363-2l-8.736-5.724h8.769v-5.517h-8.769l8.736-5.724z"></path>
<path fill="#ff4b55" d="M17.655 5.517h-3.31v8.828h-14.345v3.31h14.345v8.828h3.31v-8.828h14.345v-3.31h-14.345z"></path>
<path fill="#ff4b55" d="M1.55 26.328l11.661-7.57h-2.027l-10.608 6.886c0.26 0.303 0.593 0.54 0.973 0.684z"></path>
<path fill="#ff4b55" d="M21.649 18.759h-2.027l11.295 7.332c0.316-0.208 0.58-0.488 0.768-0.817l-10.036-6.514z"></path>
<path fill="#ff4b55" d="M0.253 6.842l9.858 6.399h2.027l-11.171-7.251c-0.3 0.223-0.545 0.515-0.714 0.852z"></path>
<path fill="#ff4b55" d="M20.785 13.241l10.627-6.898c-0.262-0.302-0.599-0.538-0.981-0.679l-11.673 7.577h2.027z"></path>
</svg>
